<?xml version="1.0" encoding="UTF-8"?>
<svg version="1.1" xmlns="http://www.w3.org/2000/svg" width="328" height="320">
<path d="M0 0 C12.21 0 24.42 0 37 0 C37 0.66 37 1.32 37 2 C37.8353125 1.98259766 37.8353125 1.98259766 38.6875 1.96484375 C43.89778343 1.90323567 48.8437951 2.25000656 54 3 C54 3.66 54 4.32 54 5 C57.3 5.33 60.6 5.66 64 6 C64 6.66 64 7.32 64 8 C66.64 8.33 69.28 8.66 72 9 C72 9.66 72 10.32 72 11 C74.31 11.33 76.62 11.66 79 12 C79 12.66 79 13.32 79 14 C80.98 14.33 82.96 14.66 85 15 C85 15.66 85 16.32 85 17 C85.886875 17.103125 86.77375 17.20625 87.6875 17.3125 C91.0826755 18.01715907 93.21942098 18.9554566 96 21 C96 21.66 96 22.32 96 23 C96.7425 23.28875 97.485 23.5775 98.25 23.875 C100.56739797 24.82302644 102.77917115 25.84845911 105 27 C105 27.66 105 28.32 105 29 C105.66 29 106.32 29 107 29 C108.625 30.375 108.625 30.375 110 32 C110 32.66 110 33.32 110 34 C111.32 34.33 112.64 34.66 114 35 C114 35.66 114 36.32 114 37 C114.99 37.33 115.98 37.66 117 38 C117 38.66 117 39.32 117 40 C117.99 40.33 118.98 40.66 120 41 C120 41.66 120 42.32 120 43 C120.99 43.33 121.98 43.66 123 44 C123 44.66 123 45.32 123 46 C123.99 46.33 124.98 46.66 126 47 C126 47.66 126 48.32 126 49 C126.66 49 127.32 49 128 49 C128.33 49.99 128.66 50.98 129 52 C129.825 52.61875 130.65 53.2375 131.5 53.875 C134.31924232 56.27135597 134.69973137 57.3967764 135 61 C135.66 61 136.32 61 137 61 C137 61.99 137 62.98 137 64 C137.99 64.33 138.98 64.66 140 65 C142.07530387 67.92079805 143 69.37546731 143 73 C143.66 73 144.32 73 145 73 C145.33 74.98 145.66 76.96 146 79 C146.66 79 147.32 79 148 79 C148.33 80.98 148.66 82.96 149 85 C149.66 85 150.32 85 151 85 C151.33 87.64 151.66 90.28 152 93 C152.66 93 153.32 93 154 93 C154.12117188 93.58007812 154.24234375 94.16015625 154.3671875 94.7578125 C155.1286468 98.3073843 155.89325005 101.70347237 157.125 105.125 C158.15782074 108.51855385 158.14108819 111.47279519 158 115 C158.66 115 159.32 115 160 115 C161.11511377 123.69965744 161.15281265 132.31331905 161.13037109 141.06811523 C161.12500442 143.56044577 161.1303464 146.05259675 161.13671875 148.54492188 C161.13605797 150.15625039 161.13477681 151.7675788 161.1328125 153.37890625 C161.13483673 154.11041397 161.13686096 154.84192169 161.13894653 155.59559631 C161.11579654 160.7938801 160.64042364 165.84067849 160 171 C159.34 171 158.68 171 158 171 C158.0309375 172.5778125 158.0309375 172.5778125 158.0625 174.1875 C158.01103198 177.32704904 157.73482813 179.96883396 157 183 C156.34 183 155.68 183 155 183 C154.896875 184.299375 154.79375 185.59875 154.6875 186.9375 C154.151692 191.90160353 152.75069775 196.34248334 151 201 C150.34 201 149.68 201 149 201 C148.67 202.98 148.34 204.96 148 207 C147.34 207 146.68 207 146 207 C145.67 208.98 145.34 210.96 145 213 C144.34 213 143.68 213 143 213 C142.67 214.65 142.34 216.3 142 218 C141.34 218 140.68 218 140 218 C139.67 219.32 139.34 220.64 139 222 C138.34 222 137.68 222 137 222 C137 223.32 137 224.64 137 226 C136.34 226.33 135.68 226.66 135 227 C134.67 227.99 134.34 228.98 134 230 C133.34 230 132.68 230 132 230 C131.67 230.99 131.34 231.98 131 233 C130.34 233 129.68 233 129 233 C128.67 233.99 128.34 234.98 128 236 C127.34 236 126.68 236 126 236 C125.938125 236.7425 125.87625 237.485 125.8125 238.25 C124.74290323 241.87017367 122.99140387 242.77383898 120 245 C118.63755204 246.64295195 117.30135125 248.30824337 116 250 C113.59149206 252.93209662 111.74815151 253.49349304 108 254 C107.67 254.99 107.34 255.98 107 257 C106.34 257 105.68 257 105 257 C105 257.66 105 258.32 105 259 C104.01 259.33 103.02 259.66 102 260 C101.67 260.66 101.34 261.32 101 262 C98.4375 262.625 98.4375 262.625 96 263 C96 263.66 96 264.32 96 265 C94.02 265.33 92.04 265.66 90 266 C90 266.66 90 267.32 90 268 C88.35 268.33 86.7 268.66 85 269 C85 269.66 85 270.32 85 271 C84.01 271 83.02 271 82 271 C82 271.66 82 272.32 82 273 C80.02 273.33 78.04 273.66 76 274 C76 274.66 76 275.32 76 276 C73.69 276.33 71.38 276.66 69 277 C69 277.66 69 278.32 69 279 C68.41992188 279.12117188 67.83984375 279.24234375 67.2421875 279.3671875 C63.70898412 280.12513542 60.33558496 280.87672389 56.9375 282.125 C53.13898291 283.25647318 49.95411415 283.13634876 46 283 C46 283.66 46 284.32 46 285 C40.0754332 285.73582126 34.31021945 286.14925243 28.34375 286.1328125 C27.55657593 286.13376923 26.76940186 286.13472595 25.95837402 286.13571167 C24.30802327 286.13638667 22.65766975 286.13458033 21.00732422 286.13037109 C18.50612323 286.12501312 16.00510177 286.1303394 13.50390625 286.13671875 C11.88802044 286.13605785 10.27213475 286.13477644 8.65625 286.1328125 C7.55428284 286.13584885 7.55428284 286.13584885 6.43005371 286.13894653 C1.22293474 286.11586246 -3.83193734 285.64186471 -9 285 C-9 284.34 -9 283.68 -9 283 C-10.8253125 283.061875 -10.8253125 283.061875 -12.6875 283.125 C-16.29208324 283.125 -18.6913226 282.48890483 -22 281 C-23.95319616 280.51970586 -25.90659631 280.04009612 -27.86328125 279.57421875 C-31.34529629 278.63846699 -34.6459515 277.31766191 -38 276 C-38 275.34 -38 274.68 -38 274 C-40.64 273.67 -43.28 273.34 -46 273 C-46 272.34 -46 271.68 -46 271 C-46.99 271 -47.98 271 -49 271 C-49 270.34 -49 269.68 -49 269 C-50.32 268.67 -51.64 268.34 -53 268 C-53 267.34 -53 266.68 -53 266 C-54.134375 265.87625 -55.26875 265.7525 -56.4375 265.625 C-58.2009375 265.315625 -58.2009375 265.315625 -60 265 C-60.33 264.34 -60.66 263.68 -61 263 C-61.99 262.67 -62.98 262.34 -64 262 C-64 261.34 -64 260.68 -64 260 C-64.99 259.67 -65.98 259.34 -67 259 C-67 258.34 -67 257.68 -67 257 C-67.763125 256.896875 -68.52625 256.79375 -69.3125 256.6875 C-72.18416484 255.95288806 -73.23042094 255.3283935 -75 253 C-75 252.34 -75 251.68 -75 251 C-76.32 250.67 -77.64 250.34 -79 250 C-79 249.34 -79 248.68 -79 248 C-79.99 247.67 -80.98 247.34 -82 247 C-82 246.34 -82 245.68 -82 245 C-82.99 244.67 -83.98 244.34 -85 244 C-85 243.34 -85 242.68 -85 242 C-85.99 241.67 -86.98 241.34 -88 241 C-88 240.34 -88 239.68 -88 239 C-88.99 238.67 -89.98 238.34 -91 238 C-91 237.01 -91 236.02 -91 235 C-91.66 235 -92.32 235 -93 235 C-97 230.64705882 -97 230.64705882 -97 227 C-97.99 226.67 -98.98 226.34 -100 226 C-100 224.68 -100 223.36 -100 222 C-100.99 221.67 -101.98 221.34 -103 221 C-103 220.01 -103 219.02 -103 218 C-103.66 218 -104.32 218 -105 218 C-105 217.01 -105 216.02 -105 215 C-105.66 215 -106.32 215 -107 215 C-107.33 213.35 -107.66 211.7 -108 210 C-108.66 210 -109.32 210 -110 210 C-110.33 208.02 -110.66 206.04 -111 204 C-111.66 204 -112.32 204 -113 204 C-113.33 201.69 -113.66 199.38 -114 197 C-114.66 197 -115.32 197 -116 197 C-116.33 194.36 -116.66 191.72 -117 189 C-117.66 189 -118.32 189 -119 189 C-119.33 185.37 -119.66 181.74 -120 178 C-120.66 178 -121.32 178 -122 178 C-122.13277344 176.85660156 -122.26554687 175.71320313 -122.40234375 174.53515625 C-122.5805031 173.0442438 -122.75890082 171.55335982 -122.9375 170.0625 C-123.02451172 169.30775391 -123.11152344 168.55300781 -123.20117188 167.77539062 C-123.34324099 164.07812542 -123.34324099 164.07812542 -125 161 C-125.08855161 158.3337397 -125.11524673 155.69352886 -125.09765625 153.02734375 C-125.0962413 152.22970108 -125.09482635 151.43205841 -125.09336853 150.61024475 C-125.08775316 148.05262565 -125.07519812 145.49509282 -125.0625 142.9375 C-125.05748698 141.20768355 -125.05292373 139.47786574 -125.04882812 137.74804688 C-125.03777875 133.49866447 -125.02050386 129.24934688 -125 125 C-124.34 125 -123.68 125 -123 125 C-123.01160156 124.35933594 -123.02320312 123.71867187 -123.03515625 123.05859375 C-123.08883119 117.91346778 -122.88169578 113.06975076 -122 108 C-121.34 108 -120.68 108 -120 108 C-119.67 104.37 -119.34 100.74 -119 97 C-118.34 97 -117.68 97 -117 97 C-116.67 94.69 -116.34 92.38 -116 90 C-115.34 90 -114.68 90 -114 90 C-113.67 87.36 -113.34 84.72 -113 82 C-112.34 82 -111.68 82 -111 82 C-110.67 80.02 -110.34 78.04 -110 76 C-109.34 76 -108.68 76 -108 76 C-107.87625 75.4225 -107.7525 74.845 -107.625 74.25 C-106.99351176 71.97664233 -106.11141809 70.0746471 -105 68 C-104.34 68 -103.68 68 -103 68 C-102.67 66.68 -102.34 65.36 -102 64 C-101.34 64 -100.68 64 -100 64 C-99.67 62.35 -99.34 60.7 -99 59 C-98.34 59 -97.68 59 -97 59 C-96.67 57.68 -96.34 56.36 -96 55 C-95.34 55 -94.68 55 -94 55 C-93.67 54.01 -93.34 53.02 -93 52 C-92.34 52 -91.68 52 -91 52 C-90.9071875 50.88625 -90.9071875 50.88625 -90.8125 49.75 C-89.74290323 46.12982633 -87.99140387 45.22616102 -85 43 C-84.34 42.175 -83.68 41.35 -83 40.5 C-80.88062764 37.85078456 -78.78691913 35.92940555 -76 34 C-75.01 34 -74.02 34 -73 34 C-72.67 33.01 -72.34 32.02 -72 31 C-71.34 31 -70.68 31 -70 31 C-69.7525 30.360625 -69.505 29.72125 -69.25 29.0625 C-68 27 -68 27 -65.875 26.25 C-64.946875 26.12625 -64.946875 26.12625 -64 26 C-64 25.34 -64 24.68 -64 24 C-62.73308493 23.32591692 -61.46129251 22.66099503 -60.1875 22 C-59.47980469 21.62875 -58.77210937 21.2575 -58.04296875 20.875 C-56 20 -56 20 -53 20 C-52.505 18.515 -52.505 18.515 -52 17 C-51.01 17 -50.02 17 -49 17 C-49 16.34 -49 15.68 -49 15 C-46.03 14.505 -46.03 14.505 -43 14 C-43 13.34 -43 12.68 -43 12 C-40.36 11.67 -37.72 11.34 -35 11 C-35 10.34 -35 9.68 -35 9 C-31.535 8.505 -31.535 8.505 -28 8 C-28 7.34 -28 6.68 -28 6 C-24.37 5.67 -20.74 5.34 -17 5 C-17 4.34 -17 3.68 -17 3 C-11.27959989 2.1679418 -5.77759884 1.87963336 0 2 C0 1.34 0 0.68 0 0 Z " fill="#020201" transform="translate(144,10)"/>
<path d="M0 0 C1.12019531 -0.02900391 2.24039063 -0.05800781 3.39453125 -0.08789062 C11.36495689 -0.14905682 15.31860522 1.02469097 21.6875 5.75 C23.18815188 7.956841 22.96090357 9.71135596 22.75 12.3125 C23.41 12.3125 24.07 12.3125 24.75 12.3125 C25.245 15.2825 25.245 15.2825 25.75 18.3125 C24.89535156 18.72242188 24.04070312 19.13234375 23.16015625 19.5546875 C21.50306641 20.36292969 21.50306641 20.36292969 19.8125 21.1875 C18.71035156 21.72117188 17.60820312 22.25484375 16.47265625 22.8046875 C13.65595489 24.02909845 13.65595489 24.02909845 12.75 26.3125 C12.09 26.3125 11.43 26.3125 10.75 26.3125 C10.75 29.2825 10.75 32.2525 10.75 35.3125 C14.12462715 34.76526317 15.83235 34.2576 18.75 32.3125 C21.75 32.375 21.75 32.375 24.75 33.3125 C26.6875 35.5 26.6875 35.5 27.75 38.3125 C27.44165622 43.14321916 26.31748427 48.35314467 23.25 52.1875 C21.75 53.3125 21.75 53.3125 19.75 53.3125 C19.42 54.3025 19.09 55.2925 18.75 56.3125 C18.09 56.3125 17.43 56.3125 16.75 56.3125 C16.75 57.3025 16.75 58.2925 16.75 59.3125 C15.76 59.3125 14.77 59.3125 13.75 59.3125 C13.75 60.3025 13.75 61.2925 13.75 62.3125 C12.5434375 63.240625 12.5434375 63.240625 11.3125 64.1875 C8.20464226 66.31092748 8.20464226 66.31092748 7.75 71.3125 C14.02 71.3125 20.29 71.3125 26.75 71.3125 C26.75 73.9525 26.75 76.5925 26.75 79.3125 C23.10418313 79.34137512 19.45839537 79.35925585 15.8125 79.375 C14.25112305 79.38756836 14.25112305 79.38756836 12.65820312 79.40039062 C11.17416992 79.40522461 11.17416992 79.40522461 9.66015625 79.41015625 C8.28549194 79.41801147 8.28549194 79.41801147 6.88305664 79.42602539 C4.75 79.3125 4.75 79.3125 3.75 78.3125 C3.6564081 76.59384591 3.63255389 74.87134256 3.63647461 73.15014648 C3.63655014 72.04908066 3.63662567 70.94801483 3.63670349 69.81358337 C3.64186478 68.6156868 3.64702606 67.41779022 3.65234375 66.18359375 C3.6537587 64.96422623 3.65517365 63.7448587 3.65663147 62.48854065 C3.66225033 58.5756693 3.67480604 54.66285419 3.6875 50.75 C3.69251257 48.10481853 3.6970759 45.45963617 3.70117188 42.81445312 C3.71222589 36.31378274 3.72898236 29.81314539 3.75 23.3125 C1.11 22.9825 -1.53 22.6525 -4.25 22.3125 C-4.25 22.9725 -4.25 23.6325 -4.25 24.3125 C-4.91 24.3125 -5.57 24.3125 -6.25 24.3125 C-6.25 29.2625 -6.25 34.2125 -6.25 39.3125 C-3.94 39.3125 -1.63 39.3125 0.75 39.3125 C0.77887814 42.79164941 0.79675687 46.27076831 0.8125 49.75 C0.82087891 50.74322266 0.82925781 51.73644531 0.83789062 52.75976562 C0.84111328 53.70400391 0.84433594 54.64824219 0.84765625 55.62109375 C0.85289307 56.49564209 0.85812988 57.37019043 0.86352539 58.27124023 C0.75 60.3125 0.75 60.3125 -0.25 61.3125 C-1.9 61.3125 -3.55 61.3125 -5.25 61.3125 C-5.25 67.5825 -5.25 73.8525 -5.25 80.3125 C-10.53 80.3125 -15.81 80.3125 -21.25 80.3125 C-21.25 81.3025 -21.25 82.2925 -21.25 83.3125 C-20.59 83.3125 -19.93 83.3125 -19.25 83.3125 C-16.23348754 90.85378115 -14.48437757 98.28904582 -13.25 106.3125 C-14.24 106.3125 -15.23 106.3125 -16.25 106.3125 C-16.25 105.3225 -16.25 104.3325 -16.25 103.3125 C-16.91 103.3125 -17.57 103.3125 -18.25 103.3125 C-18.58 101.3325 -18.91 99.3525 -19.25 97.3125 C-19.91 97.3125 -20.57 97.3125 -21.25 97.3125 C-21.25 95.6625 -21.25 94.0125 -21.25 92.3125 C-22.24 92.3125 -23.23 92.3125 -24.25 92.3125 C-24.25 92.9725 -24.25 93.6325 -24.25 94.3125 C-24.806875 94.84875 -25.36375 95.385 -25.9375 95.9375 C-28.48873083 98.55768301 -30.16517076 101.26923431 -32.00390625 104.41015625 C-33.2757687 106.35183968 -34.45121867 107.8432664 -36.25 109.3125 C-37.24 109.3125 -38.23 109.3125 -39.25 109.3125 C-39.25 108.3225 -39.25 107.3325 -39.25 106.3125 C-38.59 106.3125 -37.93 106.3125 -37.25 106.3125 C-37.20875 105.508125 -37.1675 104.70375 -37.125 103.875 C-35.93051526 99.01174069 -33.46078945 95.1450073 -30.25 91.3125 C-29.59 91.3125 -28.93 91.3125 -28.25 91.3125 C-27.92 88.0125 -27.59 84.7125 -27.25 81.3125 C-28.24 80.9825 -29.23 80.6525 -30.25 80.3125 C-30.27321781 72.72348751 -30.29096311 65.13447873 -30.30181217 57.54543877 C-30.30702039 54.02116512 -30.31408045 50.49691586 -30.32543945 46.97265625 C-30.33842978 42.91666435 -30.34324526 38.86069788 -30.34765625 34.8046875 C-30.35281754 33.54510223 -30.35797882 32.28551697 -30.36329651 30.98776245 C-30.36337204 29.80699127 -30.36344757 28.62622009 -30.36352539 27.40966797 C-30.365746 26.37486298 -30.36796661 25.34005798 -30.37025452 24.27389526 C-30.24600122 21.21402577 -29.8159392 18.31947796 -29.25 15.3125 C-28.59 15.3125 -27.93 15.3125 -27.25 15.3125 C-26.92 13.6625 -26.59 12.0125 -26.25 10.3125 C-25.59 10.3125 -24.93 10.3125 -24.25 10.3125 C-24.25 9.3225 -24.25 8.3325 -24.25 7.3125 C-22.6 6.9825 -20.95 6.6525 -19.25 6.3125 C-18.92 5.3225 -18.59 4.3325 -18.25 3.3125 C-17.26 3.3125 -16.27 3.3125 -15.25 3.3125 C-15.25 2.6525 -15.25 1.9925 -15.25 1.3125 C-10.29849729 -0.3380009 -5.1850573 0.04414067 0 0 Z " fill="#8B7334" transform="translate(171.25,116.6875)"/>
<path d="M0 0 C0 0.66 0 1.32 0 2 C0.7425 2.061875 1.485 2.12375 2.25 2.1875 C6.76458358 3.52135424 8.23884684 6.85827025 10.75 10.625 C13.15062454 17.10668627 12.44543198 24.31487711 11 31 C10.34 31 9.68 31 9 31 C8.67 33.97 8.34 36.94 8 40 C7.34 40 6.68 40 6 40 C6 40.99 6 41.98 6 43 C5.34 43 4.68 43 4 43 C3.67 44.98 3.34 46.96 3 49 C2.34 49 1.68 49 1 49 C0.67 50.98 0.34 52.96 0 55 C-0.66 55 -1.32 55 -2 55 C-2.33 56.98 -2.66 58.96 -3 61 C-3.66 61 -4.32 61 -5 61 C-5.33 62.65 -5.66 64.3 -6 66 C-6.66 66 -7.32 66 -8 66 C-8.0825 66.721875 -8.165 67.44375 -8.25 68.1875 C-9.15732732 71.58997746 -10.79377658 73.27466519 -13 76 C-14.05352843 78.30965848 -15.05719096 80.6429774 -16 83 C-16.65288627 84.34013497 -17.31225595 85.67741528 -18 87 C-18.66 87 -19.32 87 -20 87 C-20.103125 87.7425 -20.20625 88.485 -20.3125 89.25 C-21.04933797 92.1973519 -21.94799142 93.78383074 -24 96 C-24.66 96 -25.32 96 -26 96 C-26.0825 96.928125 -26.165 97.85625 -26.25 98.8125 C-27.14249975 102.60562394 -27.98605048 102.80803672 -31 105 C-32.28008262 108.08777172 -32.28008262 108.08777172 -33 111 C-33.66 111 -34.32 111 -35 111 C-35.2475 111.515625 -35.495 112.03125 -35.75 112.5625 C-37.39581616 115.77184151 -39.1976096 118.87585664 -41 122 C-41.66 122 -42.32 122 -43 122 C-43.33 123.98 -43.66 125.96 -44 128 C-44.99 128.33 -45.98 128.66 -47 129 C-48.18391223 131.37625345 -48.18391223 131.37625345 -49 134 C-49.33 134.99 -49.66 135.98 -50 137 C-50.66 137 -51.32 137 -52 137 C-52.33 137.99 -52.66 138.98 -53 140 C-54 138 -54 138 -53.0625 134.875 C-52.711875 133.92625 -52.36125 132.9775 -52 132 C-51.34 132 -50.68 132 -50 132 C-49.896875 131.13375 -49.79375 130.2675 -49.6875 129.375 C-48.96601586 125.83316877 -47.72876739 123.15687958 -46 120 C-45.34 120 -44.68 120 -44 120 C-43.88269531 119.44699219 -43.76539063 118.89398438 -43.64453125 118.32421875 C-42.90685624 115.66411795 -41.85368813 113.31456928 -40.6875 110.8125 C-40.01847656 109.36230469 -40.01847656 109.36230469 -39.3359375 107.8828125 C-38.89507812 106.93148437 -38.45421875 105.98015625 -38 105 C-35.73826651 100.06111258 -33.60085818 95.20278907 -32 90 C-31.34 90 -30.68 90 -30 90 C-29.9071875 88.329375 -29.9071875 88.329375 -29.8125 86.625 C-29.26093271 81.99018831 -27.40381114 78.43883458 -25.15625 74.39453125 C-23.95996844 71.9170968 -23.42329198 69.70810665 -23 67 C-22.34 67 -21.68 67 -21 67 C-20.67 64.03 -20.34 61.06 -20 58 C-19.34 58 -18.68 58 -18 58 C-17.67 55.03 -17.34 52.06 -17 49 C-16.34 49 -15.68 49 -15 49 C-13.97835204 38.54635215 -13.42789388 28.41520305 -15 18 C-15.804375 17.87625 -16.60875 17.7525 -17.4375 17.625 C-18.7059375 17.315625 -18.7059375 17.315625 -20 17 C-20.495 16.01 -20.495 16.01 -21 15 C-22.97888961 14.27306096 -24.97954558 13.60183749 -27 13 C-27 12.34 -27 11.68 -27 11 C-28.794375 11.0309375 -28.794375 11.0309375 -30.625 11.0625 C-34.18004869 11.06882571 -37.50555624 10.69888875 -41 10 C-41 9.34 -41 8.68 -41 8 C-45.45859862 8.13835803 -49.91679786 8.28694579 -54.375 8.4375 C-56.28152344 8.49647461 -56.28152344 8.49647461 -58.2265625 8.55664062 C-59.43828125 8.59853516 -60.65 8.64042969 -61.8984375 8.68359375 C-63.57945557 8.73858032 -63.57945557 8.73858032 -65.29443359 8.79467773 C-67.96712771 8.82596013 -67.96712771 8.82596013 -70 10 C-71.3734635 10.15004973 -72.7528526 10.24838006 -74.1328125 10.31640625 C-75.34130859 10.37924805 -75.34130859 10.37924805 -76.57421875 10.44335938 C-77.41597656 10.48267578 -78.25773437 10.52199219 -79.125 10.5625 C-79.97449219 10.60568359 -80.82398438 10.64886719 -81.69921875 10.69335938 C-83.79928223 10.79954236 -85.89961948 10.90028497 -88 11 C-87.01 10.67 -86.02 10.34 -85 10 C-85 9.34 -85 8.68 -85 8 C-79.01142501 5.96427979 -73.0117941 3.96605486 -67 2 C-65.45699219 1.48953125 -65.45699219 1.48953125 -63.8828125 0.96875 C-44.54159304 -4.91004011 -19.72385451 -3.64533285 0 0 Z " fill="#8A7335" transform="translate(132,89)"/>
<path d="M0 0 C1.47823242 -0.0309375 1.47823242 -0.0309375 2.98632812 -0.0625 C8.41814667 -0.09168371 12.58640427 -0.00499004 17.1875 3.25 C17.6825 4.735 17.6825 4.735 18.1875 6.25 C19.1775 6.58 20.1675 6.91 21.1875 7.25 C23.26280387 10.17079805 24.1875 11.62546731 24.1875 15.25 C24.8475 15.25 25.5075 15.25 26.1875 15.25 C28.54561145 22.32433436 28.36356318 33.06753198 25.9375 40.1875 C24.23036888 43.17497945 23.47548303 44.3429702 20.1875 45.25 C20.1875 45.91 20.1875 46.57 20.1875 47.25 C17.7125 47.745 17.7125 47.745 15.1875 48.25 C15.1875 48.91 15.1875 49.57 15.1875 50.25 C11.56668537 51.45693821 8.2624281 51.35782079 4.5 51.3125 C0.8803125 51.2815625 0.8803125 51.2815625 -2.8125 51.25 C-2.8125 44.65 -2.8125 38.05 -2.8125 31.25 C-0.8325 30.92 1.1475 30.59 3.1875 30.25 C2.6925 26.29 2.6925 26.29 2.1875 22.25 C-0.1225 22.25 -2.4325 22.25 -4.8125 22.25 C-5.1425 41.06 -5.4725 59.87 -5.8125 79.25 C-13.7325 79.25 -21.6525 79.25 -29.8125 79.25 C-29.8125 76.61 -29.8125 73.97 -29.8125 71.25 C-23.8725 71.25 -17.9325 71.25 -11.8125 71.25 C-11.8125 68.28 -11.8125 65.31 -11.8125 62.25 C-11.58024478 59.22653475 -11.19475991 56.26029677 -10.8125 53.25 C-11.534375 53.724375 -12.25625 54.19875 -13 54.6875 C-18.42787543 57.70298635 -23.75828067 57.36871018 -29.8125 57.25 C-29.4825 55.93 -29.1525 54.61 -28.8125 53.25 C-28.1525 53.25 -27.4925 53.25 -26.8125 53.25 C-26.4825 52.26 -26.1525 51.27 -25.8125 50.25 C-25.1525 50.25 -24.4925 50.25 -23.8125 50.25 C-23.8125 49.59 -23.8125 48.93 -23.8125 48.25 C-23.19375 47.71375 -22.575 47.1775 -21.9375 46.625 C-16.51496568 40.56452047 -17.58359396 31.8802013 -17.8125 24.25 C-18.4725 24.25 -19.1325 24.25 -19.8125 24.25 C-20.1425 23.59 -20.4725 22.93 -20.8125 22.25 C-21.8025 21.92 -22.7925 21.59 -23.8125 21.25 C-23.8125 20.59 -23.8125 19.93 -23.8125 19.25 C-25.1325 18.92 -26.4525 18.59 -27.8125 18.25 C-26.77022483 12.86491161 -26.77022483 12.86491161 -25.8125 10.25 C-23.9375 9 -23.9375 9 -21.8125 8.25 C-21.1525 7.569375 -20.4925 6.88875 -19.8125 6.1875 C-17.73397384 4.17392778 -16.62481342 3.65175906 -13.8125 3.25 C-13.8125 2.59 -13.8125 1.93 -13.8125 1.25 C-9.26701791 -0.2651607 -4.76154489 0.02462337 0 0 Z " fill="#877134" transform="translate(231.8125,116.75)"/>
<path d="M0 0 C0 3.96 0 7.92 0 12 C0.66 12 1.32 12 2 12 C2.33 10.35 2.66 8.7 3 7 C3.99 6.67 4.98 6.34 6 6 C6 5.34 6 4.68 6 4 C6.99 4 7.98 4 9 4 C9 5.65 9 7.3 9 9 C8.34 9 7.68 9 7 9 C7.01160156 10.21816406 7.02320313 11.43632813 7.03515625 12.69140625 C7.04454178 14.31510262 7.05364116 15.93880067 7.0625 17.5625 C7.07087891 18.36236328 7.07925781 19.16222656 7.08789062 19.98632812 C7.12968615 30.22623089 5.449584 38.50345506 -1.125 46.625 C-3 48 -3 48 -6 48 C-6 48.66 -6 49.32 -6 50 C-11.23151756 51.74383919 -17.72986178 51.70504472 -23 50 C-25.44706902 48.25209356 -25.93412462 47.25751284 -26.6875 44.3125 C-26.790625 43.549375 -26.89375 42.78625 -27 42 C-27.66 42 -28.32 42 -29 42 C-30.84532714 36.52940419 -31.25309068 31.81180072 -31.125 26.0625 C-31.11597656 25.28326172 -31.10695313 24.50402344 -31.09765625 23.70117188 C-31.07433691 21.80064553 -31.03847586 19.90027992 -31 18 C-30.34 18 -29.68 18 -29 18 C-28.67 16.02 -28.34 14.04 -28 12 C-27.01 11.67 -26.02 11.34 -25 11 C-24.34 10.01 -23.68 9.02 -23 8 C-22.34 8 -21.68 8 -21 8 C-20.67 6.68 -20.34 5.36 -20 4 C-18.35 3.67 -16.7 3.34 -15 3 C-15.66 5.97 -16.32 8.94 -17 12 C-16.34 12 -15.68 12 -15 12 C-14.67 11.01 -14.34 10.02 -14 9 C-13.34 9 -12.68 9 -12 9 C-11.67 7.35 -11.34 5.7 -11 4 C-9.35 3.67 -7.7 3.34 -6 3 C-6 2.34 -6 1.68 -6 1 C-3 0 -3 0 0 0 Z " fill="#B1A06A" transform="translate(135,29)"/>
<path d="M0 0 C1.40185547 0.00966797 1.40185547 0.00966797 2.83203125 0.01953125 C4.28416016 0.04466797 4.28416016 0.04466797 5.765625 0.0703125 C6.74917969 0.07933594 7.73273438 0.08835938 8.74609375 0.09765625 C11.16937526 0.12118325 13.59253131 0.15705313 16.015625 0.1953125 C16.015625 5.1453125 16.015625 10.0953125 16.015625 15.1953125 C11.395625 15.1953125 6.775625 15.1953125 2.015625 15.1953125 C2.015625 16.8453125 2.015625 18.4953125 2.015625 20.1953125 C8.945625 20.6903125 8.945625 20.6903125 16.015625 21.1953125 C16.015625 25.4853125 16.015625 29.7753125 16.015625 34.1953125 C11.065625 34.5253125 6.115625 34.8553125 1.015625 35.1953125 C1.015625 36.8453125 1.015625 38.4953125 1.015625 40.1953125 C5.965625 40.1953125 10.915625 40.1953125 16.015625 40.1953125 C16.24348958 42.47395833 16.47135417 44.75260417 16.69921875 47.03125 C16.90652614 49.23804055 16.90652614 49.23804055 18.015625 51.1953125 C15.06325586 54.20093078 12.96296181 55.47163938 8.80859375 55.5859375 C7.27294829 55.55957449 5.73753982 55.51219395 4.203125 55.4453125 C3.41486328 55.42726562 2.62660156 55.40921875 1.81445312 55.390625 C-0.11901761 55.34375298 -2.05185785 55.2720166 -3.984375 55.1953125 C-3.984375 54.5353125 -3.984375 53.8753125 -3.984375 53.1953125 C-4.726875 53.2778125 -5.469375 53.3603125 -6.234375 53.4453125 C-8.984375 53.1953125 -8.984375 53.1953125 -11.109375 51.7578125 C-16.54770291 44.32543103 -16.42269658 35.89081584 -16.296875 27.0078125 C-16.30009766 25.85861328 -16.30332031 24.70941406 -16.30664062 23.52539062 C-16.26609673 17.15999844 -15.87995195 11.9864664 -12.984375 6.1953125 C-12.324375 6.1953125 -11.664375 6.1953125 -10.984375 6.1953125 C-10.736875 5.5765625 -10.489375 4.9578125 -10.234375 4.3203125 C-7.84227575 0.25374378 -4.44982185 -0.05426612 0 0 Z " fill="#877033" transform="translate(250.984375,199.8046875)"/>
<path d="M0 0 C0 5.61 0 11.22 0 17 C-1.98 17.33 -3.96 17.66 -6 18 C-5.87625 19.258125 -5.7525 20.51625 -5.625 21.8125 C-5.55539063 22.52019531 -5.48578125 23.22789062 -5.4140625 23.95703125 C-5.07334609 26.29988142 -5.07334609 26.29988142 -3 29 C-1.08460188 35.32081381 -0.98560108 42.50501693 -3.6875 48.5625 C-5.25322223 51.3516181 -5.63521835 51.86735213 -8.75 53 C-9.4925 53 -10.235 53 -11 53 C-11.33 54.32 -11.66 55.64 -12 57 C-16.67201205 58.20568053 -21.21496292 58.09382426 -26 58 C-26 57.34 -26 56.68 -26 56 C-26.99 56 -27.98 56 -29 56 C-29 50.72 -29 45.44 -29 40 C-26.69 40 -24.38 40 -22 40 C-21.40267181 37.23735711 -21 34.83967231 -21 32 C-21.66 32 -22.32 32 -23 32 C-26.0452483 24.33249981 -27.44114535 17.59454501 -24.6875 9.625 C-22.52607707 4.98194334 -21.14580556 3.56248636 -16.5625 1.3125 C-11.11302572 -0.64319918 -5.72268688 -0.1950916 0 0 Z " fill="#867034" transform="translate(126,200)"/>
<path d="M0 0 C5.61 0 11.22 0 17 0 C17 12.54 17 25.08 17 38 C18.98 38 20.96 38 23 38 C24 39 24 39 24.09765625 42.59765625 C24.0909822 44.08596867 24.07902183 45.57426432 24.0625 47.0625 C24.05798828 47.82111328 24.05347656 48.57972656 24.04882812 49.36132812 C24.0370068 51.24091871 24.01907078 53.12046899 24 55 C19.71 55 15.42 55 11 55 C11 54.34 11 53.68 11 53 C10.236875 52.896875 9.47375 52.79375 8.6875 52.6875 C5.71665389 51.92751611 4.72586957 51.50251088 3 49 C2.3125 45.8125 2.3125 45.8125 2 43 C1.34 43 0.68 43 0 43 C0 28.81 0 14.62 0 0 Z " fill="#867134" transform="translate(209,200)"/>
<path d="M0 0 C1.98 0 3.96 0 6 0 C6 1.65 6 3.3 6 5 C8.97 5.495 8.97 5.495 12 6 C12 6.66 12 7.32 12 8 C21.57 8 31.14 8 41 8 C41 7.34 41 6.68 41 6 C44.465 5.505 44.465 5.505 48 5 C48 3.35 48 1.7 48 0 C50.64 0 53.28 0 56 0 C56 2.64 56 5.28 56 8 C55.01 8 54.02 8 53 8 C52.67 9.65 52.34 11.3 52 13 C51.34 13 50.68 13 50 13 C49.896875 13.928125 49.79375 14.85625 49.6875 15.8125 C48.99468505 19.02464205 48.6120831 20.11930017 46 22 C45.34 22 44.68 22 44 22 C43.505 23.485 43.505 23.485 43 25 C39.62132353 27.46552067 38.29441798 28 34 28 C34 28.66 34 29.32 34 30 C29.71 30 25.42 30 21 30 C21 29.34 21 28.68 21 28 C18.36 27.67 15.72 27.34 13 27 C12.8453125 26.0409375 12.8453125 26.0409375 12.6875 25.0625 C12.460625 24.381875 12.23375 23.70125 12 23 C11.01 22.67 10.02 22.34 9 22 C9 21.34 9 20.68 9 20 C8.01 19.67 7.02 19.34 6 19 C6 18.01 6 17.02 6 16 C5.34 16 4.68 16 4 16 C3.67 13.36 3.34 10.72 3 8 C2.01 8 1.02 8 0 8 C0 5.36 0 2.72 0 0 Z " fill="#322F2A" transform="translate(129,233)"/>
<path d="M0 0 C5.28 0 10.56 0 16 0 C16 18.15 16 36.3 16 55 C10.72 55 5.44 55 0 55 C0 36.85 0 18.7 0 0 Z " fill="#897337" transform="translate(190,200)"/>
<path d="M0 0 C5.61 0 11.22 0 17 0 C17 0.66 17 1.32 17 2 C18.09054688 1.98259766 18.09054688 1.98259766 19.203125 1.96484375 C26.52631959 1.89912277 33.71366686 2.2765343 41 3 C41 3.66 41 4.32 41 5 C41.66 5 42.32 5 43 5 C43 5.66 43 6.32 43 7 C44.24716797 7.07347656 44.24716797 7.07347656 45.51953125 7.1484375 C46.60621094 7.22320312 47.69289062 7.29796875 48.8125 7.375 C49.89144531 7.44460937 50.97039062 7.51421875 52.08203125 7.5859375 C55 8 55 8 58 10 C58 10.66 58 11.32 58 12 C56.36804688 12.18175781 56.36804688 12.18175781 54.703125 12.3671875 C33.62569124 14.7140297 33.62569124 14.7140297 13.23828125 20.31640625 C10.55766132 21.13509471 7.76471524 21.53921413 5 22 C5 17.38 5 12.76 5 8 C4.34 8 3.68 8 3 8 C2.87625 7.195625 2.7525 6.39125 2.625 5.5625 C2.315625 4.2940625 2.315625 4.2940625 2 3 C1.34 2.67 0.68 2.34 0 2 C0 1.34 0 0.68 0 0 Z " fill="#8C7535" transform="translate(144,92)"/>
<path d="M0 0 C0.66 0 1.32 0 2 0 C1.93148331 0.57603973 1.86296661 1.15207947 1.79237366 1.74557495 C1.02532032 8.69237754 0.78898014 15.58534448 0.68359375 22.5703125 C0.66281265 23.73255341 0.64203156 24.89479431 0.62062073 26.09225464 C0.5557403 29.76978189 0.49652897 33.44737464 0.4375 37.125 C0.39425616 39.63281901 0.35064009 42.14063163 0.30664062 44.6484375 C0.2001228 50.76555954 0.09868585 56.88274681 0 63 C7.26 63 14.52 63 22 63 C22 57.06 22 51.12 22 45 C23.98 45 25.96 45 28 45 C28 38.73 28 32.46 28 26 C26.02 26 24.04 26 22 26 C22 21.05 22 16.1 22 11 C22.33 11 22.66 11 23 11 C23 15.29 23 19.58 23 24 C25.31 24 27.62 24 30 24 C30.02887814 27.47914941 30.04675687 30.95826831 30.0625 34.4375 C30.07087891 35.43072266 30.07925781 36.42394531 30.08789062 37.44726562 C30.09111328 38.39150391 30.09433594 39.33574219 30.09765625 40.30859375 C30.10289307 41.18314209 30.10812988 42.05769043 30.11352539 42.95874023 C30 45 30 45 29 46 C27.35 46 25.7 46 24 46 C24 52.27 24 58.54 24 65 C18.72 65 13.44 65 8 65 C8 65.99 8 66.98 8 68 C8.66 68 9.32 68 10 68 C13.01651246 75.54128115 14.76562243 82.97654582 16 91 C15.01 91 14.02 91 13 91 C13 90.01 13 89.02 13 88 C12.34 88 11.68 88 11 88 C10.67 86.02 10.34 84.04 10 82 C9.34 82 8.68 82 8 82 C8 80.35 8 78.7 8 77 C7.01 77 6.02 77 5 77 C5 77.66 5 78.32 5 79 C4.443125 79.53625 3.88625 80.0725 3.3125 80.625 C0.76126917 83.24518301 -0.91517076 85.95673431 -2.75390625 89.09765625 C-4.0257687 91.03933968 -5.20121867 92.5307664 -7 94 C-7.99 94 -8.98 94 -10 94 C-10 93.01 -10 92.02 -10 91 C-9.34 91 -8.68 91 -8 91 C-7.95875 90.195625 -7.9175 89.39125 -7.875 88.5625 C-6.68051526 83.69924069 -4.21078945 79.8325073 -1 76 C-0.34 76 0.32 76 1 76 C1.33 72.7 1.66 69.4 2 66 C1.01 65.67 0.02 65.34 -1 65 C-1.02321781 57.41098751 -1.04096311 49.82197873 -1.05181217 42.23293877 C-1.05702039 38.70866512 -1.06408045 35.18441586 -1.07543945 31.66015625 C-1.08842978 27.60416435 -1.09324526 23.54819788 -1.09765625 19.4921875 C-1.10281754 18.23260223 -1.10797882 16.97301697 -1.11329651 15.67526245 C-1.11337204 14.49449127 -1.11344757 13.31372009 -1.11352539 12.09716797 C-1.115746 11.06236298 -1.11796661 10.02755798 -1.12025452 8.96139526 C-0.99600122 5.90152577 -0.5659392 3.00697796 0 0 Z " fill="#615533" transform="translate(142,132)"/>
<path d="M0 0 C0.99 0 1.98 0 3 0 C3 0.66 3 1.32 3 2 C14.79073171 2.77806859 26.22529744 3.1596298 38 2 C38 1.34 38 0.68 38 0 C39.98 0 41.96 0 44 0 C43.67 1.65 43.34 3.3 43 5 C41.35 5.33 39.7 5.66 38 6 C38 7.65 38 9.3 38 11 C37.01 11.33 36.02 11.66 35 12 C35 12.66 35 13.32 35 14 C33.35 14.33 31.7 14.66 30 15 C30 15.66 30 16.32 30 17 C26.75684218 17.96604701 23.81491334 18.13419024 20.4375 18.125 C19.48746094 18.12757813 18.53742188 18.13015625 17.55859375 18.1328125 C15 18 15 18 12 17 C12 16.34 12 15.68 12 15 C10.8553125 14.938125 10.8553125 14.938125 9.6875 14.875 C7 14 7 14 5.4375 11.1875 C4.7259375 9.6096875 4.7259375 9.6096875 4 8 C3.278125 7.29875 2.55625 6.5975 1.8125 5.875 C0 4 0 4 0 0 Z " fill="#CBCBCA" transform="translate(135,241)"/>
<path d="M0 0 C1.48421477 3.85895841 0.36126942 6.21869605 -1 10 C-1.36920191 11.99369031 -1.71325582 13.99279077 -2 16 C-1.319375 15.2575 -1.319375 15.2575 -0.625 14.5 C1 13 1 13 3 13 C3 12.34 3 11.68 3 11 C3.66 11 4.32 11 5 11 C5 10.01 5 9.02 5 8 C5.66 8 6.32 8 7 8 C6.4739075 11.78786597 5.61896089 14.17152224 3 17 C2.34 17 1.68 17 1 17 C0.9175 17.928125 0.835 18.85625 0.75 19.8125 C-0.14249975 23.60562394 -0.98605048 23.80803672 -4 26 C-5.28008262 29.08777172 -5.28008262 29.08777172 -6 32 C-6.66 32 -7.32 32 -8 32 C-8.2475 32.515625 -8.495 33.03125 -8.75 33.5625 C-10.39581616 36.77184151 -12.1976096 39.87585664 -14 43 C-14.66 43 -15.32 43 -16 43 C-16.33 44.98 -16.66 46.96 -17 49 C-18.485 49.495 -18.485 49.495 -20 50 C-21.18391223 52.37625345 -21.18391223 52.37625345 -22 55 C-22.33 55.99 -22.66 56.98 -23 58 C-23.66 58 -24.32 58 -25 58 C-25.33 58.99 -25.66 59.98 -26 61 C-27 59 -27 59 -26.0625 55.875 C-25.711875 54.92625 -25.36125 53.9775 -25 53 C-24.34 53 -23.68 53 -23 53 C-22.8453125 51.700625 -22.8453125 51.700625 -22.6875 50.375 C-21.96601586 46.83316877 -20.72876739 44.15687958 -19 41 C-18.34 41 -17.68 41 -17 41 C-16.88269531 40.44699219 -16.76539062 39.89398438 -16.64453125 39.32421875 C-15.90685624 36.66411795 -14.85368813 34.31456928 -13.6875 31.8125 C-13.24148437 30.84570312 -12.79546875 29.87890625 -12.3359375 28.8828125 C-11.89507812 27.93148437 -11.45421875 26.98015625 -11 26 C-8.73826651 21.06111258 -6.60085818 16.20278907 -5 11 C-4.34 11 -3.68 11 -3 11 C-2.87625 9.741875 -2.7525 8.48375 -2.625 7.1875 C-2.30131941 3.89674737 -1.93395001 2.90092502 0 0 Z " fill="#796A35" transform="translate(105,168)"/>
<path d="M0 0 C5.75 -0.125 5.75 -0.125 8 1 C8.33 19.15 8.66 37.3 9 56 C16.26 56.33 23.52 56.66 31 57 C31 54.36 31 51.72 31 49 C31.33 49 31.66 49 32 49 C32 51.97 32 54.94 32 58 C23.75 58 15.5 58 7 58 C6.67 51.73 6.34 45.46 6 39 C5.34 38.67 4.68 38.34 4 38 C4.33 31.07 4.66 24.14 5 17 C2.69 17 0.38 17 -2 17 C-2 12.05 -2 7.1 -2 2 C-1.34 2 -0.68 2 0 2 C0 1.34 0 0.68 0 0 Z " fill="#1A1309" transform="translate(167,139)"/>
<path d="M0 0 C0.99 0.33 1.98 0.66 3 1 C3 5.29 3 9.58 3 14 C5.31 14 7.62 14 10 14 C10 13.34 10 12.68 10 12 C13.65836295 10.72382688 17.20755613 9.75848877 21 9 C23.00744615 8.35610218 25.00945124 7.69437747 27 7 C25.68 6.67 24.36 6.34 23 6 C23.33 5.01 23.66 4.02 24 3 C28.72383963 2.34843591 33.21974517 1.88049363 38 2 C38 1.34 38 0.68 38 0 C38.66 0 39.32 0 40 0 C40 0.66 40 1.32 40 2 C41.24716797 2.07347656 41.24716797 2.07347656 42.51953125 2.1484375 C43.60621094 2.22320312 44.69289062 2.29796875 45.8125 2.375 C46.89144531 2.44460937 47.97039062 2.51421875 49.08203125 2.5859375 C52 3 52 3 55 5 C55 5.66 55 6.32 55 7 C53.36804688 7.18175781 53.36804688 7.18175781 51.703125 7.3671875 C30.62569124 9.7140297 30.62569124 9.7140297 10.23828125 15.31640625 C7.55766132 16.13509471 4.76471524 16.53921413 2 17 C2 12.38 2 7.76 2 3 C1.34 3 0.68 3 0 3 C0 2.01 0 1.02 0 0 Z " fill="#786936" transform="translate(147,97)"/>
<path d="M0 0 C1.98 0 3.96 0 6 0 C6 1.65 6 3.3 6 5 C8.97 5.495 8.97 5.495 12 6 C12 6.66 12 7.32 12 8 C13.299375 7.979375 14.59875 7.95875 15.9375 7.9375 C25.57397875 7.95277176 25.57397875 7.95277176 30 9 C30.33 9.66 30.66 10.32 31 11 C23.80068496 12.47258717 16.00181208 12.33393736 9 10 C9 9.34 9 8.68 9 8 C8.01 8 7.02 8 6 8 C6 9.32 6 10.64 6 12 C6.99 12.33 7.98 12.66 9 13 C11.62859821 15.83079807 12.47229401 18.20051686 13 22 C14.65 22.33 16.3 22.66 18 23 C18 23.66 18 24.32 18 25 C22.95 25 27.9 25 33 25 C33 25.66 33 26.32 33 27 C30.41703983 27.19522373 27.83395921 27.38144403 25.25 27.5625 C24.15558594 27.64661133 24.15558594 27.64661133 23.0390625 27.73242188 C19.45046349 27.97709908 16.44972775 27.99666259 13 27 C12.8453125 26.0409375 12.8453125 26.0409375 12.6875 25.0625 C12.460625 24.381875 12.23375 23.70125 12 23 C11.01 22.67 10.02 22.34 9 22 C9 21.34 9 20.68 9 20 C8.01 19.67 7.02 19.34 6 19 C6 18.01 6 17.02 6 16 C5.34 16 4.68 16 4 16 C3.67 13.36 3.34 10.72 3 8 C2.01 8 1.02 8 0 8 C0 5.36 0 2.72 0 0 Z " fill="#323026" transform="translate(129,233)"/>
<path d="M0 0 C0 0.66 0 1.32 0 2 C-2.64 2 -5.28 2 -8 2 C-8.268125 2.639375 -8.53625 3.27875 -8.8125 3.9375 C-10 6 -10 6 -13 7 C-3.43 7 6.14 7 16 7 C16 7.66 16 8.32 16 9 C18.31 9 20.62 9 23 9 C23.495 10.485 23.495 10.485 24 12 C19.71 11.67 15.42 11.34 11 11 C11 10.34 11 9.68 11 9 C6.54140138 9.13835803 2.08320214 9.28694579 -2.375 9.4375 C-4.28152344 9.49647461 -4.28152344 9.49647461 -6.2265625 9.55664062 C-7.43828125 9.59853516 -8.65 9.64042969 -9.8984375 9.68359375 C-11.57945557 9.73858032 -11.57945557 9.73858032 -13.29443359 9.79467773 C-15.96712771 9.82596013 -15.96712771 9.82596013 -18 11 C-19.3734635 11.15004973 -20.7528526 11.24838006 -22.1328125 11.31640625 C-23.34130859 11.37924805 -23.34130859 11.37924805 -24.57421875 11.44335938 C-25.41597656 11.48267578 -26.25773437 11.52199219 -27.125 11.5625 C-27.97449219 11.60568359 -28.82398438 11.64886719 -29.69921875 11.69335938 C-31.79928223 11.79954236 -33.89961948 11.90028497 -36 12 C-35.01 11.67 -34.02 11.34 -33 11 C-33 10.34 -33 9.68 -33 9 C-6.52427184 0 -6.52427184 0 0 0 Z " fill="#746C3C" transform="translate(80,88)"/>
<path d="M0 0 C2.35546875 0.19140625 2.35546875 0.19140625 5 1 C6.36328125 3.21484375 6.36328125 3.21484375 7.3125 5.9375 C7.80169922 7.28134766 7.80169922 7.28134766 8.30078125 8.65234375 C9 11 9 11 9 13 C9.66 13 10.32 13 11 13 C11.33 16.3 11.66 19.6 12 23 C10.35 23 8.7 23 7 23 C6.82984375 22.32453125 6.6596875 21.6490625 6.484375 20.953125 C4.69961407 14.11888033 4.69961407 14.11888033 0 9 C0 9.99 0 10.98 0 12 C-1.375 13.6875 -1.375 13.6875 -3 15 C-3.66 15 -4.32 15 -5 15 C-5.33 16.32 -5.66 17.64 -6 19 C-6.66 19 -7.32 19 -8 19 C-8 19.66 -8 20.32 -8 21 C-8.99 21 -9.98 21 -11 21 C-11 20.01 -11 19.02 -11 18 C-10.34 18 -9.68 18 -9 18 C-8.67 16.02 -8.34 14.04 -8 12 C-7.34 12 -6.68 12 -6 12 C-5.67 10.35 -5.34 8.7 -5 7 C-4.34 7 -3.68 7 -3 7 C-2.87625 6.401875 -2.7525 5.80375 -2.625 5.1875 C-2 3 -2 3 0 0 Z " fill="#8A825D" transform="translate(170,202)"/>
<path d="M0 0 C1.94140625 0.94921875 1.94140625 0.94921875 3.1015625 3.2421875 C3.39933594 4.19738281 3.69710937 5.15257812 4.00390625 6.13671875 C5.07787617 9.41381273 6.12092263 12.30184022 7.69140625 15.38671875 C8.94140625 17.94921875 8.94140625 17.94921875 8.94140625 21.94921875 C7.95140625 21.94921875 6.96140625 21.94921875 5.94140625 21.94921875 C5.94140625 20.95921875 5.94140625 19.96921875 5.94140625 18.94921875 C5.28140625 18.94921875 4.62140625 18.94921875 3.94140625 18.94921875 C3.61140625 16.96921875 3.28140625 14.98921875 2.94140625 12.94921875 C2.28140625 12.94921875 1.62140625 12.94921875 0.94140625 12.94921875 C0.94140625 11.29921875 0.94140625 9.64921875 0.94140625 7.94921875 C-0.04859375 7.94921875 -1.03859375 7.94921875 -2.05859375 7.94921875 C-2.05859375 8.60921875 -2.05859375 9.26921875 -2.05859375 9.94921875 C-2.61546875 10.48546875 -3.17234375 11.02171875 -3.74609375 11.57421875 C-6.29732458 14.19440176 -7.97376451 16.90595306 -9.8125 20.046875 C-11.08436245 21.98855843 -12.25981242 23.47998515 -14.05859375 24.94921875 C-15.04859375 24.94921875 -16.03859375 24.94921875 -17.05859375 24.94921875 C-17.05859375 23.95921875 -17.05859375 22.96921875 -17.05859375 21.94921875 C-16.39859375 21.94921875 -15.73859375 21.94921875 -15.05859375 21.94921875 C-15.01734375 21.14484375 -14.97609375 20.34046875 -14.93359375 19.51171875 C-13.73910901 14.64845944 -11.2693832 10.78172605 -8.05859375 6.94921875 C-7.39859375 6.94921875 -6.73859375 6.94921875 -6.05859375 6.94921875 C-5.95546875 6.16546875 -5.85234375 5.38171875 -5.74609375 4.57421875 C-4.87540909 1.24978642 -3.56448201 -0.0879284 0 0 Z " fill="#A79D6D" transform="translate(149.05859375,201.05078125)"/>
<path d="M0 0 C7.92 0 15.84 0 24 0 C24 1.32 24 2.64 24 4 C17.73 4 11.46 4 5 4 C5 22.15 5 40.3 5 59 C4.67 59 4.34 59 4 59 C4 40.85 4 22.7 4 4 C-1.28 4 -6.56 4 -12 4 C-12 3.34 -12 2.68 -12 2 C-8.04 2 -4.08 2 0 2 C0 1.34 0 0.68 0 0 Z " fill="#241C09" transform="translate(202,196)"/>
<path d="M0 0 C0.33 0 0.66 0 1 0 C1 19.14 1 38.28 1 58 C9.415 57.505 9.415 57.505 18 57 C18.12375 55.081875 18.2475 53.16375 18.375 51.1875 C18.75 45.375 18.75 45.375 21 42 C21 47.61 21 53.22 21 59 C13.74 59 6.48 59 -1 59 C-1.02474561 51.56185142 -1.04288171 44.12372688 -1.05493164 36.68554688 C-1.05995589 34.15592023 -1.06677638 31.62629649 -1.07543945 29.09667969 C-1.08758853 25.45767501 -1.09324746 21.81870878 -1.09765625 18.1796875 C-1.10281754 17.05134491 -1.10797882 15.92300232 -1.11329651 14.76046753 C-1.11337204 13.69982086 -1.11344757 12.63917419 -1.11352539 11.54638672 C-1.115746 10.61817108 -1.11796661 9.68995544 -1.12025452 8.73361206 C-0.98936598 5.75826858 -0.54351624 2.92579758 0 0 Z " fill="#826F3E" transform="translate(143,136)"/>
<path d="M0 0 C-0.66 2.97 -1.32 5.94 -2 9 C-1.34 9 -0.68 9 0 9 C0.33 8.01 0.66 7.02 1 6 C1.66 6 2.32 6 3 6 C3.33 4.35 3.66 2.7 4 1 C5.32 0.67 6.64 0.34 8 0 C8 0.66 8 1.32 8 2 C7.01 2.495 7.01 2.495 6 3 C6 4.32 6 5.64 6 7 C3.8125 9.3125 3.8125 9.3125 1 11 C0.21625 10.814375 -0.5675 10.62875 -1.375 10.4375 C-4.50673898 9.9155435 -5.05910193 10.34830759 -7.625 12.0625 C-11.77099233 15.37028084 -13.65023516 18.49277482 -14.39453125 23.828125 C-14.65646101 26.55219455 -14.85898636 29.26725295 -15 32 C-15.33 32 -15.66 32 -16 32 C-16 26.39 -16 20.78 -16 15 C-15.34 15 -14.68 15 -14 15 C-13.67 13.02 -13.34 11.04 -13 9 C-12.01 8.67 -11.02 8.34 -10 8 C-9.34 7.01 -8.68 6.02 -8 5 C-7.34 5 -6.68 5 -6 5 C-5.87625 4.360625 -5.7525 3.72125 -5.625 3.0625 C-5.41875 2.381875 -5.2125 1.70125 -5 1 C-3 0 -3 0 0 0 Z " fill="#A09568" transform="translate(120,32)"/>
<path d="M0 0 C-1.8374444 1.22496293 -3.70762973 2.40435984 -5.625 3.5 C-8.1057227 4.78026262 -8.1057227 4.78026262 -9 7 C-9.66 7 -10.32 7 -11 7 C-11 9.97 -11 12.94 -11 16 C-7.62537285 15.45276317 -5.91765 14.9451 -3 13 C0 13.0625 0 13.0625 3 14 C4.9375 16.1875 4.9375 16.1875 6 19 C5.72974934 23.23392693 4.4218791 27.01873853 3 31 C2.34 31 1.68 31 1 31 C1.08378906 30.25234375 1.16757813 29.5046875 1.25390625 28.734375 C1.35574219 27.74953125 1.45757812 26.7646875 1.5625 25.75 C1.71912109 24.28820312 1.71912109 24.28820312 1.87890625 22.796875 C1.98974468 20.2368648 1.77738092 18.41851841 1 16 C-1.47266765 16.34444881 -1.47266765 16.34444881 -4 17 C-4.33 17.66 -4.66 18.32 -5 19 C-7.97 19 -10.94 19 -14 19 C-14.6249225 8.11593304 -14.6249225 8.11593304 -12.25 3.875 C-8.04837565 0.37364638 -5.51669029 -0.25075865 0 0 Z " fill="#78663A" transform="translate(193,136)"/>
<path d="M0 0 C3.5 0.125 3.5 0.125 4.5 1.125 C4.64115161 3.79558851 4.54247107 6.44932238 4.5 9.125 C2.52 9.455 0.54 9.785 -1.5 10.125 C-1.5 11.775 -1.5 13.425 -1.5 15.125 C-2.49 15.125 -3.48 15.125 -4.5 15.125 C-4.52685412 12.81256208 -4.54632841 10.5000373 -4.5625 8.1875 C-4.57410156 6.89972656 -4.58570313 5.61195313 -4.59765625 4.28515625 C-4.47016838 0.15964887 -4.47016838 0.15964887 0 0 Z " fill="#090401" transform="translate(230.5,137.875)"/>
<path d="M0 0 C0.66 0.66 1.32 1.32 2 2 C0.68 4.31 -0.64 6.62 -2 9 C-2.66 9 -3.32 9 -4 9 C-4.33 10.98 -4.66 12.96 -5 15 C-5.99 15.33 -6.98 15.66 -8 16 C-9.18391223 18.37625345 -9.18391223 18.37625345 -10 21 C-10.33 21.99 -10.66 22.98 -11 24 C-11.66 24 -12.32 24 -13 24 C-13.33 24.99 -13.66 25.98 -14 27 C-15 25 -15 25 -14.0625 21.875 C-13.711875 20.92625 -13.36125 19.9775 -13 19 C-12.34 19 -11.68 19 -11 19 C-10.8453125 17.700625 -10.8453125 17.700625 -10.6875 16.375 C-9.96601586 12.83316877 -8.72876739 10.15687958 -7 7 C-6.34 7 -5.68 7 -5 7 C-4.87625 6.38125 -4.7525 5.7625 -4.625 5.125 C-4 3 -4 3 -2 1 C-1.34 0.67 -0.68 0.34 0 0 Z " fill="#645E39" transform="translate(93,202)"/>
<path d="M0 0 C0.33 0 0.66 0 1 0 C1 6.27 1 12.54 1 19 C-4.28 19 -9.56 19 -15 19 C-15 19.99 -15 20.98 -15 22 C-14.34 22 -13.68 22 -13 22 C-9.57142857 30.42857143 -9.57142857 30.42857143 -10 35 C-12.22825644 32.77174356 -12.69239369 31.34238372 -13.625 28.375 C-13.88539063 27.55773437 -14.14578125 26.74046875 -14.4140625 25.8984375 C-14.60742188 25.27195313 -14.80078125 24.64546875 -15 24 C-16.98 24.33 -18.96 24.66 -21 25 C-20.938125 24.21625 -20.87625 23.4325 -20.8125 22.625 C-20.874375 21.75875 -20.93625 20.8925 -21 20 C-21.99 19.34 -22.98 18.68 -24 18 C-16.08 18 -8.16 18 0 18 C0 12.06 0 6.12 0 0 Z " fill="#231C06" transform="translate(165,178)"/>
<path d="M0 0 C0.33 0 0.66 0 1 0 C1 4.29 1 8.58 1 13 C3.31 13 5.62 13 8 13 C8.02887814 16.47914941 8.04675687 19.95826831 8.0625 23.4375 C8.07087891 24.43072266 8.07925781 25.42394531 8.08789062 26.44726562 C8.09111328 27.39150391 8.09433594 28.33574219 8.09765625 29.30859375 C8.10289307 30.18314209 8.10812988 31.05769043 8.11352539 31.95874023 C8 34 8 34 7 35 C5.02 35 3.04 35 1 35 C1 40.94 1 46.88 1 53 C0.67 53 0.34 53 0 53 C0 46.73 0 40.46 0 34 C1.98 34 3.96 34 6 34 C6 27.73 6 21.46 6 15 C4.02 15 2.04 15 0 15 C0 10.05 0 5.1 0 0 Z " fill="#4D4225" transform="translate(164,143)"/>
<path d="M0 0 C0.33 0 0.66 0 1 0 C1 10.56 1 21.12 1 32 C0.34 32 -0.32 32 -1 32 C-2.30118568 26.29035828 -2.18405009 20.70535315 -2.1875 14.875 C-2.19974609 13.77800781 -2.21199219 12.68101562 -2.22460938 11.55078125 C-2.22750977 9.97490234 -2.22750977 9.97490234 -2.23046875 8.3671875 C-2.23457764 7.40925293 -2.23868652 6.45131836 -2.24291992 5.46435547 C-2 3 -2 3 0 0 Z " fill="#827340" transform="translate(225,206)"/>
<path d="M0 0 C0.66 0 1.32 0 2 0 C2 0.99 2 1.98 2 3 C2.66 3 3.32 3 4 3 C4 3.66 4 4.32 4 5 C5.4540625 5.185625 5.4540625 5.185625 6.9375 5.375 C8.4534375 5.684375 8.4534375 5.684375 10 6 C10.33 6.66 10.66 7.32 11 8 C13.35599235 8.46751788 13.35599235 8.46751788 16.0625 8.625 C17.44115234 8.73714844 17.44115234 8.73714844 18.84765625 8.8515625 C19.55792969 8.90054688 20.26820313 8.94953125 21 9 C21.66 7.68 22.32 6.36 23 5 C23.99 5 24.98 5 26 5 C26 5.66 26 6.32 26 7 C26.99 7.33 27.98 7.66 29 8 C29 8.66 29 9.32 29 10 C25.69005287 11.65497356 22.00877 11.10084335 18.375 11.0625 C17.57320312 11.05798828 16.77140625 11.05347656 15.9453125 11.04882812 C13.96350994 11.03703168 11.98174567 11.01909605 10 11 C10 10.34 10 9.68 10 9 C8.88625 9.12375 8.88625 9.12375 7.75 9.25 C5 9 5 9 2.75 7.3125 C0.84817294 4.79937138 0.34455198 3.10096781 0 0 Z " fill="#7D6C39" transform="translate(237,244)"/>
<path d="M0 0 C8.91 0 17.82 0 27 0 C27 0.66 27 1.32 27 2 C29.31 2 31.62 2 34 2 C34.495 3.485 34.495 3.485 35 5 C30.71 4.67 26.42 4.34 22 4 C22 3.34 22 2.68 22 2 C14.41 2 6.82 2 -1 2 C-0.67 1.34 -0.34 0.68 0 0 Z " fill="#706334" transform="translate(69,95)"/>
<path d="M0 0 C5.61 0 11.22 0 17 0 C17 0.66 17 1.32 17 2 C18.09054688 1.98259766 18.09054688 1.98259766 19.203125 1.96484375 C26.52631959 1.89912277 33.71366686 2.2765343 41 3 C41 3.66 41 4.32 41 5 C36.85387186 4.86186975 32.70818838 4.71321141 28.5625 4.5625 C26.78649414 4.50352539 26.78649414 4.50352539 24.97460938 4.44335938 C23.28754883 4.38051758 23.28754883 4.38051758 21.56640625 4.31640625 C20.52427979 4.27974854 19.48215332 4.24309082 18.40844727 4.20532227 C16 4 16 4 15 3 C11.66432524 2.92738667 8.33967891 3.00391343 5.00390625 3.0625 C2 3 2 3 0 2 C0 1.34 0 0.68 0 0 Z " fill="#5A4F2B" transform="translate(144,92)"/>
<path d="M0 0 C0.97453125 0.01804688 1.9490625 0.03609375 2.953125 0.0546875 C5.34417673 0.10157087 7.73471873 0.17330648 10.125 0.25 C10.125 5.2 10.125 10.15 10.125 15.25 C7.485 15.25 4.845 15.25 2.125 15.25 C2.125 14.92 2.125 14.59 2.125 14.25 C4.435 14.25 6.745 14.25 9.125 14.25 C9.125 10.29 9.125 6.33 9.125 2.25 C-1.765 2.745 -1.765 2.745 -12.875 3.25 C-12.875 3.91 -12.875 4.57 -12.875 5.25 C-14.195 4.92 -15.515 4.59 -16.875 4.25 C-11.46358404 -0.37794497 -6.93052792 -0.24416494 0 0 Z " fill="#796B3B" transform="translate(256.875,199.75)"/>
<path d="M0 0 C2 2 2 2 2 5.1875 C0.78556788 9.81752247 -1.28319991 12.95814122 -5 16 C-5.99 16 -6.98 16 -8 16 C-8 15.01 -8 14.02 -8 13 C-7.34 13 -6.68 13 -6 13 C-5.9071875 11.7315625 -5.9071875 11.7315625 -5.8125 10.4375 C-4.7594782 5.98240777 -2.80339085 3.59409083 0 0 Z " fill="#9C936B" transform="translate(140,210)"/>
<path d="M0 0 C1.19044922 0.00451172 2.38089844 0.00902344 3.60742188 0.01367188 C6.50916936 0.02532548 9.41080626 0.04168441 12.3125 0.0625 C12.3125 0.3925 12.3125 0.7225 12.3125 1.0625 C11.75377197 1.08231934 11.19504395 1.10213867 10.61938477 1.12255859 C8.03752582 1.2190219 5.45634608 1.32819812 2.875 1.4375 C1.99650391 1.4684375 1.11800781 1.499375 0.21289062 1.53125 C-4.91511034 1.75832015 -9.67221374 2.34270939 -14.64453125 3.63476562 C-18.01543105 4.34052763 -21.25598635 4.18728231 -24.6875 4.0625 C-24.6875 3.0725 -24.6875 2.0825 -24.6875 1.0625 C-16.43723532 0.13441062 -8.2971172 -0.0605629 0 0 Z " fill="#7C6C3F" transform="translate(104.6875,86.9375)"/>
<path d="M0 0 C1.5 1.375 1.5 1.375 3 3 C3 3.66 3 4.32 3 5 C4.65 5.33 6.3 5.66 8 6 C8 6.66 8 7.32 8 8 C12.95 8 17.9 8 23 8 C23 8.66 23 9.32 23 10 C20.41703983 10.19522373 17.83395921 10.38144403 15.25 10.5625 C14.52039063 10.61857422 13.79078125 10.67464844 13.0390625 10.73242188 C9.45046349 10.97709908 6.44972775 10.99666259 3 10 C2.896875 9.360625 2.79375 8.72125 2.6875 8.0625 C2.3471875 7.0415625 2.3471875 7.0415625 2 6 C1.01 5.67 0.02 5.34 -1 5 C-1.33 4.01 -1.66 3.02 -2 2 C-1.34 2 -0.68 2 0 2 C0 1.34 0 0.68 0 0 Z " fill="#3B3A34" transform="translate(139,250)"/>
<path d="M0 0 C0.99 0 1.98 0 3 0 C3 1.65 3 3.3 3 5 C2.34 5 1.68 5 1 5 C1 10.94 1 16.88 1 23 C0.67 23 0.34 23 0 23 C-0.33 19.37 -0.66 15.74 -1 12 C-1.66 12 -2.32 12 -3 12 C-4.25 5.375 -4.25 5.375 -2 2 C-1.34 2 -0.68 2 0 2 C0 1.34 0 0.68 0 0 Z " fill="#958F61" transform="translate(141,33)"/>
<path d="M0 0 C0.33 0 0.66 0 1 0 C1.07347656 1.68029297 1.07347656 1.68029297 1.1484375 3.39453125 C1.22347856 4.86721203 1.29902582 6.33986707 1.375 7.8125 C1.4059375 8.55048828 1.436875 9.28847656 1.46875 10.04882812 C1.67346148 13.81893115 1.86433827 15.79650741 4 19 C4.125 21.6875 4.125 21.6875 4 24 C1 23 1 23 0.05078125 21.25 C-2.11039317 14.66356368 -3.1913099 8.64838657 -1 1.9375 C-0.67 1.298125 -0.34 0.65875 0 0 Z " fill="#73653B" transform="translate(102,209)"/>
<path d="M0 0 C0.66 0 1.32 0 2 0 C0.86726461 4.44380808 -0.28317615 8.26436721 -3 12 C-3.66 12 -4.32 12 -5 12 C-5 12.66 -5 13.32 -5 14 C-6.65 14.33 -8.3 14.66 -10 15 C-10 15.66 -10 16.32 -10 17 C-12.31 17.33 -14.62 17.66 -17 18 C-15.875 16 -15.875 16 -14 14 C-10.8125 13.75 -10.8125 13.75 -8 14 C-7.95875 13.2575 -7.9175 12.515 -7.875 11.75 C-6.65879677 7.92764699 -4.2667043 7.17780287 -1 5 C-0.03780298 2.37233611 -0.03780298 2.37233611 0 0 Z " fill="#796A3D" transform="translate(257,150)"/>
<path d="M0 0 C1.32 0 2.64 0 4 0 C4 8.58 4 17.16 4 26 C3.67 26 3.34 26 3 26 C2.67 22.04 2.34 18.08 2 14 C1.34 14 0.68 14 0 14 C0.33 10.04 0.66 6.08 1 2 C0.34 1.67 -0.32 1.34 -1 1 C-0.67 0.67 -0.34 0.34 0 0 Z " fill="#746236" transform="translate(220,168)"/>
<path d="M0 0 C3.48055338 0.2764531 6.95901678 0.57369635 10.4375 0.875 C11.43072266 0.95363281 12.42394531 1.03226563 13.44726562 1.11328125 C14.86362305 1.23896484 14.86362305 1.23896484 16.30859375 1.3671875 C17.18314209 1.44050293 18.05769043 1.51381836 18.95874023 1.58935547 C19.63235596 1.72486816 20.30597168 1.86038086 21 2 C21.33 2.66 21.66 3.32 22 4 C14.80068496 5.47258717 7.00181208 5.33393736 0 3 C0 2.01 0 1.02 0 0 Z " fill="#4A4843" transform="translate(138,240)"/>
<path d="M0 0 C2.31 0.33 4.62 0.66 7 1 C7 1.66 7 2.32 7 3 C8.32 3 9.64 3 11 3 C11 3.99 11 4.98 11 6 C11.639375 6.20625 12.27875 6.4125 12.9375 6.625 C15 8 15 8 15.8125 10.375 C16.084395 15.63163665 15.54978803 20.77278462 15 26 C14.67 26 14.34 26 14 26 C13.34 19.73 12.68 13.46 12 7 C10.35 6.67 8.7 6.34 7 6 C6.67 5.34 6.34 4.68 6 4 C4.02111039 3.27306096 2.02045442 2.60183749 0 2 C0 1.34 0 0.68 0 0 Z " fill="#6C5C2E" transform="translate(105,100)"/>
<path d="M0 0 C-0.33 0.99 -0.66 1.98 -1 3 C-2.32 3 -3.64 3 -5 3 C-5 3.66 -5 4.32 -5 5 C-9.29 5 -13.58 5 -18 5 C-18 4.01 -18 3.02 -18 2 C-14.04 2 -10.08 2 -6 2 C-6 1.34 -6 0.68 -6 0 C-2.25 -1.125 -2.25 -1.125 0 0 Z " fill="#35332F" transform="translate(168,258)"/>
<path d="M0 0 C1.65 0.33 3.3 0.66 5 1 C5 6.28 5 11.56 5 17 C0.71 17 -3.58 17 -8 17 C-8 16.34 -8 15.68 -8 15 C-9.65 14.67 -11.3 14.34 -13 14 C-13.33 13.01 -13.66 12.02 -14 11 C-12.02 11 -10.04 11 -8 11 C-7.77570313 11.64453125 -7.55140625 12.2890625 -7.3203125 12.953125 C-6.17110544 15.24388852 -6.17110544 15.24388852 -3.6171875 15.609375 C-2.25980469 15.67898437 -2.25980469 15.67898437 -0.875 15.75 C0.73375 15.8325 2.3425 15.915 4 16 C4 11.38 4 6.76 4 2 C2.68 1.67 1.36 1.34 0 1 C0 0.67 0 0.34 0 0 Z " fill="#5C532B" transform="translate(228,238)"/>
<path d="M0 0 C2.64590014 -0.02684679 5.29153096 -0.04676357 7.9375 -0.0625 C8.69224609 -0.07087891 9.44699219 -0.07925781 10.22460938 -0.08789062 C12.14994313 -0.09652441 14.07535581 -0.05224333 16 0 C17.66342837 1.66342837 17.36048097 3.7825709 17.5625 6.0625 C17.68818359 7.44115234 17.68818359 7.44115234 17.81640625 8.84765625 C17.87699219 9.55792969 17.93757813 10.26820313 18 11 C17.01 11 16.02 11 15 11 C15 8.03 15 5.06 15 2 C10.05 2 5.1 2 0 2 C0 1.34 0 0.68 0 0 Z " fill="#3C331C" transform="translate(252,238)"/>
<path d="M0 0 C0.33 0 0.66 0 1 0 C1 5.61 1 11.22 1 17 C-5.6 17 -12.2 17 -19 17 C-19 16.67 -19 16.34 -19 16 C-10.585 15.505 -10.585 15.505 -2 15 C-1.855625 13.081875 -1.71125 11.16375 -1.5625 9.1875 C-1.31275672 5.86948218 -1.0541518 3.16245541 0 0 Z " fill="#7E713D" transform="translate(163,178)"/>
<path d="M0 0 C0.66 0 1.32 0 2 0 C2.04241723 2.33294775 2.04092937 4.66702567 2 7 C1.67 7.33 1.34 7.66 1 8 C0.84126045 10.21687994 0.74866163 12.43855298 0.68359375 14.66015625 C0.66281265 15.32462265 0.64203156 15.98908905 0.62062073 16.6736908 C0.55506342 18.80318543 0.49621215 20.93280668 0.4375 23.0625 C0.39432061 24.50326847 0.35070651 25.94402399 0.30664062 27.38476562 C0.19937607 30.9230404 0.09812629 34.46145869 0 38 C-0.33 38 -0.66 38 -1 38 C-1.02475064 33.23112363 -1.04288403 28.46228479 -1.05493164 23.69335938 C-1.05995505 22.07160796 -1.06677494 20.44986105 -1.07543945 18.828125 C-1.08759229 16.49478031 -1.09324828 14.1614956 -1.09765625 11.828125 C-1.10281754 11.10506165 -1.10797882 10.38199829 -1.11329651 9.63702393 C-1.11366918 6.2798725 -1.04907619 3.20893892 0 0 Z " fill="#837440" transform="translate(238,206)"/>
<path d="M0 0 C0 0.66 0 1.32 0 2 C-1.2065625 2.8971875 -1.2065625 2.8971875 -2.4375 3.8125 C-5.29710802 6.2536288 -5.6953187 7.34382438 -6 11 C-6.99 11 -7.98 11 -9 11 C-9 8.03 -9 5.06 -9 2 C-3.375 0 -3.375 0 0 0 Z " fill="#807038" transform="translate(185,177)"/>
<path d="M0 0 C0.99 0.33 1.98 0.66 3 1 C3.08119503 3.24940295 3.13927819 5.49964871 3.1875 7.75 C3.22230469 9.00296875 3.25710937 10.2559375 3.29296875 11.546875 C2.98802939 15.14109357 2.45605371 16.44725126 0 19 C-0.99 18.67 -1.98 18.34 -3 18 C-2.01 16.515 -2.01 16.515 -1 15 C0.18747825 10.01259135 0.101839 5.09195022 0 0 Z " fill="#756636" transform="translate(214,144)"/>
<path d="M0 0 C0 0.99 0 1.98 0 3 C-0.33 3.33 -0.66 3.66 -1 4 C-2.65 4 -4.3 4 -6 4 C-6 8.29 -6 12.58 -6 17 C-6.66 17 -7.32 17 -8 17 C-8 11.72 -8 6.44 -8 1 C-5.69 1 -3.38 1 -1 1 C-0.67 0.67 -0.34 0.34 0 0 Z " fill="#776B3E" transform="translate(105,239)"/>
<path d="M0 0 C0.33 0 0.66 0 1 0 C1.02505615 1.04454346 1.0501123 2.08908691 1.07592773 3.1652832 C1.17008539 7.03992016 1.27028572 10.91438134 1.37231445 14.78881836 C1.41563167 16.46585987 1.45730907 18.14294458 1.49731445 19.82006836 C1.55509485 22.23043841 1.6187668 24.6405917 1.68359375 27.05078125 C1.70030624 27.80087967 1.71701874 28.55097809 1.73423767 29.32380676 C1.82344233 32.45677992 2.00236453 35.0070936 3 38 C2.01 38 1.02 38 0 38 C0 25.46 0 12.92 0 0 Z " fill="#231D01" transform="translate(226,200)"/>
<path d="M0 0 C0.66 0 1.32 0 2 0 C2.68837568 9.67550265 2.68837568 9.67550265 0.125 13.625 C-0.57625 14.40875 -1.2775 15.1925 -2 16 C-2.66 16 -3.32 16 -4 16 C-3.67 13.69 -3.34 11.38 -3 9 C-2.34 9 -1.68 9 -1 9 C-0.67 6.03 -0.34 3.06 0 0 Z " fill="#6C6030" transform="translate(112,147)"/>
<path d="M0 0 C0.33 0.99 0.66 1.98 1 3 C1.66 3 2.32 3 3 3 C4.2062252 6.61867559 4.10816918 9.92506251 4.0625 13.6875 C4.05798828 14.38939453 4.05347656 15.09128906 4.04882812 15.81445312 C4.03706927 17.54300538 4.01913454 19.27151365 4 21 C3.34 21 2.68 21 2 21 C2 22.65 2 24.3 2 26 C1.01 26 0.02 26 -1 26 C-0.7834375 25.45472656 -0.566875 24.90945312 -0.34375 24.34765625 C1.67296853 18.88571024 2.85885458 13.83351876 2 8 C1.49533203 7.00419922 1.49533203 7.00419922 0.98046875 5.98828125 C0 4 0 4 0 0 Z " fill="#7E6F3E" transform="translate(255,129)"/>
<path d="M0 0 C0 0.66 0 1.32 0 2 C-2.64 2 -5.28 2 -8 2 C-8.66 3.32 -9.32 4.64 -10 6 C-13.63 6 -17.26 6 -21 6 C-18.73555803 3.73555803 -17.81305146 3.58343837 -14.75 3 C-11.94438087 2.43257141 -9.41041102 1.79976223 -6.6875 0.875 C-4 0 -4 0 0 0 Z " fill="#5F5329" transform="translate(80,88)"/>
<path d="M0 0 C2.02045442 0.60183749 4.02111039 1.27306096 6 2 C6.33 2.66 6.66 3.32 7 4 C7.99 4.33 8.98 4.66 10 5 C10 5.66 10 6.32 10 7 C12.64 7 15.28 7 18 7 C18 7.33 18 7.66 18 8 C5.65605096 8.24203822 5.65605096 8.24203822 2.25 5.6875 C0.85255754 3.80095268 0.3962081 2.29800696 0 0 Z " fill="#948965" transform="translate(108,72)"/>
<path d="M0 0 C0 1.32 0 2.64 0 4 C0.66 4 1.32 4 2 4 C1.62403791 6.78211944 1.32681541 8.5879284 -0.4375 10.8125 C-2 12 -2 12 -4 12 C-3.34 9.03 -2.68 6.06 -2 3 C-2.66 3 -3.32 3 -4 3 C-4 2.34 -4 1.68 -4 1 C-2 0 -2 0 0 0 Z " fill="#332A1A" transform="translate(122,29)"/>
<path d="M0 0 C0.66 0.66 1.32 1.32 2 2 C2.66 1.67 3.32 1.34 4 1 C3.67 1.99 3.34 2.98 3 4 C2.34 4 1.68 4 1 4 C-0.07525194 6.65228812 -1.09456151 9.28368454 -2 12 C-2.66 12 -3.32 12 -4 12 C-4.33 12.99 -4.66 13.98 -5 15 C-6 13 -6 13 -5.0625 9.875 C-4.711875 8.92625 -4.36125 7.9775 -4 7 C-3.34 7 -2.68 7 -2 7 C-1.855625 6.030625 -1.71125 5.06125 -1.5625 4.0625 C-1 1 -1 1 0 0 Z " fill="#44412D" transform="translate(84,214)"/>
<path d="M0 0 C0.66 0 1.32 0 2 0 C2.86172797 2.41283832 3.08724082 3.69465714 2.375 6.1875 C1 8 1 8 -1.625 8.75 C-2.40875 8.8325 -3.1925 8.915 -4 9 C-3.4739075 5.21213403 -2.61896089 2.82847776 0 0 Z " fill="#7B6C3D" transform="translate(95,195)"/>
<path d="M0 0 C1.32 0 2.64 0 4 0 C5.55577239 5.65735415 4.24281523 8.79666866 2 14 C1.34 14 0.68 14 0 14 C0.08378906 13.24074219 0.16757813 12.48148438 0.25390625 11.69921875 C0.35574219 10.70535156 0.45757812 9.71148437 0.5625 8.6875 C0.66691406 7.70136719 0.77132812 6.71523437 0.87890625 5.69921875 C1.16602527 2.90069653 1.16602527 2.90069653 0 0 Z " fill="#665832" transform="translate(194,153)"/>
<path d="M0 0 C0.66 0 1.32 0 2 0 C1.79503906 0.73863281 1.59007813 1.47726563 1.37890625 2.23828125 C-0.46278815 9.17327404 -1.59111675 15.83749337 -2 23 C-2.33 23 -2.66 23 -3 23 C-3 17.39 -3 11.78 -3 6 C-2.34 6 -1.68 6 -1 6 C-0.67 4.02 -0.34 2.04 0 0 Z " fill="#5E553C" transform="translate(107,41)"/>
<path d="M0 0 C1.98 0 3.96 0 6 0 C5.8125 2.3125 5.8125 2.3125 5 5 C2.4375 6.8125 2.4375 6.8125 0 8 C0 5.36 0 2.72 0 0 Z " fill="#494737" transform="translate(129,233)"/>
<path d="M0 0 C0.99 0 1.98 0 3 0 C3 1.65 3 3.3 3 5 C2.360625 5.12375 1.72125 5.2475 1.0625 5.375 C0.0415625 5.684375 0.0415625 5.684375 -1 6 C-1.33 6.66 -1.66 7.32 -2 8 C-2.66 8 -3.32 8 -4 8 C-4 8.66 -4 9.32 -4 10 C-4.66 10 -5.32 10 -6 10 C-4.87548273 7.0280615 -3.77706209 4.66559313 -2 2 C-1.34 2 -0.68 2 0 2 C0 1.34 0 0.68 0 0 Z " fill="#322816" transform="translate(147,209)"/>
<path d="M0 0 C0.66 0.33 1.32 0.66 2 1 C1.67 6.28 1.34 11.56 1 17 C0.67 16.34 0.34 15.68 0 15 C-0.66 15 -1.32 15 -2 15 C-1.85973717 12.68715544 -1.71264442 10.37472409 -1.5625 8.0625 C-1.48128906 6.77472656 -1.40007812 5.48695313 -1.31640625 4.16015625 C-1 1 -1 1 0 0 Z " fill="#816E3D" transform="translate(163,140)"/>
<path d="M0 0 C0.66 0 1.32 0 2 0 C2.66 0.99 3.32 1.98 4 3 C4.66 3 5.32 3 6 3 C6 4.98 6 6.96 6 9 C4.35 9.66 2.7 10.32 1 11 C0.67 7.37 0.34 3.74 0 0 Z " fill="#241D11" transform="translate(123,232)"/>
<path d="M0 0 C4.95 0 9.9 0 15 0 C15.22786458 2.27864583 15.45572917 4.55729167 15.68359375 6.8359375 C15.89090114 9.04272805 15.89090114 9.04272805 17 11 C16.01 11.33 15.02 11.66 14 12 C11.875 4.375 11.875 4.375 13 1 C8.71 1 4.42 1 0 1 C0 0.67 0 0.34 0 0 Z " fill="#80703F" transform="translate(252,240)"/>
<path d="M0 0 C2.97 0.495 2.97 0.495 6 1 C6 2.98 6 4.96 6 7 C4.68 7.33 3.36 7.66 2 8 C2 6.68 2 5.36 2 4 C1.34 4 0.68 4 0 4 C0 2.68 0 1.36 0 0 Z " fill="#514E45" transform="translate(179,234)"/>
<path d="M0 0 C0.99 0 1.98 0 3 0 C3 1.65 3 3.3 3 5 C-3.93 5 -10.86 5 -18 5 C-17.67 4.34 -17.34 3.68 -17 3 C-11.72 3 -6.44 3 -1 3 C-0.67 2.01 -0.34 1.02 0 0 Z " fill="#857445" transform="translate(194,190)"/>
<path d="M0 0 C0 0.99 0 1.98 0 3 C-0.99 3.33 -1.98 3.66 -3 4 C-3.66 3.67 -4.32 3.34 -5 3 C-4.67 8.94 -4.34 14.88 -4 21 C-4.66 21 -5.32 21 -6 21 C-6 14.4 -6 7.8 -6 1 C-3 0 -3 0 0 0 Z " fill="#72633E" transform="translate(235,147)"/>
<path d="M0 0 C0 0.33 0 0.66 0 1 C-1.98 1 -3.96 1 -6 1 C-6 2.65 -6 4.3 -6 6 C-7.98 6 -9.96 6 -12 6 C-12 4.68 -12 3.36 -12 2 C-7.8794254 0.00214565 -4.54805635 -0.17835515 0 0 Z " fill="#85753F" transform="translate(259,214)"/>
<path d="M0 0 C2 1 2 1 3.125 3.3125 C4 6 4 6 4 10 C3.01 10 2.02 10 1 10 C1 9.01 1 8.02 1 7 C0.34 7 -0.32 7 -1 7 C-1.33 5.35 -1.66 3.7 -2 2 C-1.34 2 -0.68 2 0 2 C0 1.34 0 0.68 0 0 Z " fill="#8A8366" transform="translate(154,213)"/>
<path d="M0 0 C8.86956522 0.73913043 8.86956522 0.73913043 12 4 C12 4.66 12 5.32 12 6 C12.99 6.33 13.98 6.66 15 7 C13.02 7.99 13.02 7.99 11 9 C11 7.68 11 6.36 11 5 C10.01 5 9.02 5 8 5 C8 4.34 8 3.68 8 3 C5.36 2.67 2.72 2.34 0 2 C0 1.34 0 0.68 0 0 Z " fill="#5D522C" transform="translate(238,117)"/>
<path d="M0 0 C1.58323688 -0.027193 3.16661062 -0.04648306 4.75 -0.0625 C6.07257813 -0.07990234 6.07257813 -0.07990234 7.421875 -0.09765625 C9.7818838 -0.00826198 11.74498524 0.33087179 14 1 C14 1.66 14 2.32 14 3 C12.22992286 3.08114106 10.45877902 3.13925505 8.6875 3.1875 C7.70136719 3.22230469 6.71523437 3.25710937 5.69921875 3.29296875 C3 3 3 3 1.14453125 1.48828125 C0.76683594 0.99714844 0.38914062 0.50601563 0 0 Z " fill="#706535" transform="translate(118,88)"/>
<path d="M0 0 C3.125 -0.1875 3.125 -0.1875 6 0 C9.42857143 8.42857143 9.42857143 8.42857143 9 13 C6.77174356 10.77174356 6.30760631 9.34238372 5.375 6.375 C5.11460937 5.55773437 4.85421875 4.74046875 4.5859375 3.8984375 C4.39257812 3.27195313 4.19921875 2.64546875 4 2 C2.02 2.33 0.04 2.66 -2 3 C-1.34 2.01 -0.68 1.02 0 0 Z " fill="#544C34" transform="translate(146,200)"/>
<path d="M0 0 C1.07765625 0.03609375 2.1553125 0.0721875 3.265625 0.109375 C4.49539062 0.17898437 4.49539062 0.17898437 5.75 0.25 C6.08 0.91 6.41 1.57 6.75 2.25 C5.94175781 2.31058594 5.13351563 2.37117187 4.30078125 2.43359375 C2.69783203 2.55927734 2.69783203 2.55927734 1.0625 2.6875 C0.00675781 2.76871094 -1.04898438 2.84992188 -2.13671875 2.93359375 C-4.90086297 3.21451681 -7.53945741 3.65156852 -10.25 4.25 C-7.0246569 0.27312065 -5.05259733 -0.21967814 0 0 Z " fill="#211908" transform="translate(119.25,197.75)"/>
<path d="M0 0 C1.4864331 3.86472606 0.54227092 6.25448491 -1 10 C-2.26233599 12.38547904 -3.6103093 14.68384884 -5 17 C-6.24546405 14.50907189 -5.7767578 13.58919267 -5 11 C-4.34 11 -3.68 11 -3 11 C-2.87625 9.741875 -2.7525 8.48375 -2.625 7.1875 C-2.30131941 3.89674737 -1.93395001 2.90092502 0 0 Z " fill="#62562F" transform="translate(105,168)"/>
<path d="M0 0 C0.99 0.33 1.98 0.66 3 1 C3.94137255 3.82411765 4.11725382 5.52918032 4.09765625 8.44921875 C4.09282227 9.72055664 4.09282227 9.72055664 4.08789062 11.01757812 C4.07951172 11.89865234 4.07113281 12.77972656 4.0625 13.6875 C4.05798828 14.58017578 4.05347656 15.47285156 4.04882812 16.39257812 C4.03704983 18.59511987 4.02060164 20.79752599 4 23 C3.67 23 3.34 23 3 23 C2.67 16.4 2.34 9.8 2 3 C1.34 3 0.68 3 0 3 C0 2.01 0 1.02 0 0 Z " fill="#342913" transform="translate(256,129)"/>
<path d="M0 0 C0.66 0 1.32 0 2 0 C1.34 2.97 0.68 5.94 0 9 C-0.99 9 -1.98 9 -3 9 C-3 8.34 -3 7.68 -3 7 C-3.66 6.67 -4.32 6.34 -5 6 C-5 5.34 -5 4.68 -5 4 C-3.35 3.67 -1.7 3.34 0 3 C0 2.01 0 1.02 0 0 Z " fill="#45413B" transform="translate(178,243)"/>
<path d="M0 0 C0.66 0 1.32 0 2 0 C0.86726461 4.44380808 -0.28317615 8.26436721 -3 12 C-3.66 12 -4.32 12 -5 12 C-4.6875 9.625 -4.6875 9.625 -4 7 C-3.01 6.34 -2.02 5.68 -1 5 C-0.27034634 2.43717258 -0.27034634 2.43717258 0 0 Z " fill="#6D5F35" transform="translate(257,150)"/>
<path d="M0 0 C1.89575251 -0.02721176 3.79161979 -0.04649136 5.6875 -0.0625 C6.74324219 -0.07410156 7.79898438 -0.08570313 8.88671875 -0.09765625 C11.72410262 -0.00865425 14.2438919 0.35060162 17 1 C17 1.66 17 2.32 17 3 C14.66705225 3.04241723 12.33297433 3.04092937 10 3 C9.67 2.67 9.34 2.34 9 2 C7.48530552 1.76807135 5.96245438 1.58784762 4.4375 1.4375 C3.61121094 1.35371094 2.78492188 1.26992187 1.93359375 1.18359375 C1.29550781 1.12300781 0.65742188 1.06242188 0 1 C0 0.67 0 0.34 0 0 Z " fill="#1F1E1A" transform="translate(150,241)"/>
<path d="M0 0 C1.9375 0.5625 1.9375 0.5625 4 2 C4.75 5.625 4.75 5.625 5 9 C4.01 8.67 3.02 8.34 2 8 C2 7.01 2 6.02 2 5 C1.34 5 0.68 5 0 5 C0 3.35 0 1.7 0 0 Z " fill="#A29A71" transform="translate(176,215)"/>
<path d="M0 0 C0 0.99 0 1.98 0 3 C-0.66 3 -1.32 3 -2 3 C-2 3.66 -2 4.32 -2 5 C-3.98 5.99 -5.96 6.98 -8 8 C-7.67 6.68 -7.34 5.36 -7 4 C-6.34 4 -5.68 4 -5 4 C-5 3.01 -5 2.02 -5 1 C-3 0 -3 0 0 0 Z " fill="#625732" transform="translate(152,123)"/>
<path d="M0 0 C5.61 0 11.22 0 17 0 C14.64641749 2.35358251 14.07031606 2.27871904 10.8671875 2.4140625 C9.65869141 2.47207031 9.65869141 2.47207031 8.42578125 2.53125 C7.16314453 2.57765625 7.16314453 2.57765625 5.875 2.625 C4.60076172 2.68300781 4.60076172 2.68300781 3.30078125 2.7421875 C1.20088316 2.83656494 -0.89952891 2.91937586 -3 3 C-2.01 2.67 -1.02 2.34 0 2 C0 1.34 0 0.68 0 0 Z " fill="#3C3926" transform="translate(47,97)"/>
<path d="M0 0 C1.32 0 2.64 0 4 0 C4 0.66 4 1.32 4 2 C0.69005287 3.65497356 -2.99123 3.10084335 -6.625 3.0625 C-7.42679688 3.05798828 -8.22859375 3.05347656 -9.0546875 3.04882812 C-11.03649006 3.03703168 -13.01825433 3.01909605 -15 3 C-15 2.67 -15 2.34 -15 2 C-14.00097656 1.93941406 -13.00195312 1.87882813 -11.97265625 1.81640625 C-10.68230469 1.73261719 -9.39195312 1.64882812 -8.0625 1.5625 C-6.77472656 1.48128906 -5.48695313 1.40007812 -4.16015625 1.31640625 C-1.13976043 1.35080812 -1.13976043 1.35080812 0 0 Z " fill="#6B5E36" transform="translate(262,252)"/>
<path d="M0 0 C0.66 0.66 1.32 1.32 2 2 C0.515 4.475 0.515 4.475 -1 7 C-2.32 6.67 -3.64 6.34 -5 6 C-4.1875 3.5625 -4.1875 3.5625 -3 1 C-2.01 0.67 -1.02 0.34 0 0 Z " fill="#6F6338" transform="translate(93,202)"/>
<path d="M0 0 C-1.8374444 1.22496293 -3.70762973 2.40435984 -5.625 3.5 C-8.1057227 4.78026262 -8.1057227 4.78026262 -9 7 C-9.66 6.67 -10.32 6.34 -11 6 C-10.75 4.125 -10.75 4.125 -10 2 C-6.82026536 -0.35535899 -3.84875379 -0.17494335 0 0 Z " fill="#6A5F30" transform="translate(193,136)"/>
<path d="M0 0 C0.66 0.33 1.32 0.66 2 1 C2.59355614 3.64860427 2.74209269 6.29197322 3 9 C1.68 8.67 0.36 8.34 -1 8 C-0.67 5.36 -0.34 2.72 0 0 Z " fill="#9E936E" transform="translate(151,206)"/>
<path d="M0 0 C4.62 0 9.24 0 14 0 C14 0.33 14 0.66 14 1 C10.37 1.33 6.74 1.66 3 2 C2.34 4.31 1.68 6.62 1 9 C0.67 9 0.34 9 0 9 C0 6.03 0 3.06 0 0 Z " fill="#87743F" transform="translate(191,201)"/>
<path d="M0 0 C0.99 0.33 1.98 0.66 3 1 C3 2.65 3 4.3 3 6 C3.66 6 4.32 6 5 6 C5.33 7.98 5.66 9.96 6 12 C5.01 12 4.02 12 3 12 C2.86722656 11.38511719 2.73445312 10.77023438 2.59765625 10.13671875 C2.42105469 9.32847656 2.24445313 8.52023438 2.0625 7.6875 C1.88847656 6.88699219 1.71445313 6.08648437 1.53515625 5.26171875 C1.00113841 2.854599 1.00113841 2.854599 0 0 Z " fill="#6E6237" transform="translate(191,123)"/>
<path d="M0 0 C0.99 0 1.98 0 3 0 C3 4 3 4 1.6875 5.75 C0 7 0 7 -3 7 C-3 6.01 -3 5.02 -3 4 C-2.34 4 -1.68 4 -1 4 C-0.67 2.68 -0.34 1.36 0 0 Z " fill="#9F9674" transform="translate(135,219)"/>
<path d="M0 0 C0.66 0 1.32 0 2 0 C1.4739075 3.78786597 0.61896089 6.17152224 -2 9 C-2.66 9 -3.32 9 -4 9 C-4 7.68 -4 6.36 -4 5 C-3.34 5 -2.68 5 -2 5 C-2 4.34 -2 3.68 -2 3 C-1.34 3 -0.68 3 0 3 C0 2.01 0 1.02 0 0 Z " fill="#6A5B2E" transform="translate(110,176)"/>
<path d="M0 0 C1.32 0 2.64 0 4 0 C3.67 0.99 3.34 1.98 3 3 C2.34 3 1.68 3 1 3 C1 3.99 1 4.98 1 6 C0.01 6 -0.98 6 -2 6 C-1.125 1.125 -1.125 1.125 0 0 Z " fill="#776539" transform="translate(187,170)"/>
<path d="M0 0 C0 0.99 0 1.98 0 3 C-1.98 3.33 -3.96 3.66 -6 4 C-6 3.34 -6 2.68 -6 2 C-7.65 2 -9.3 2 -11 2 C-11 1.67 -11 1.34 -11 1 C-3.375 0 -3.375 0 0 0 Z " fill="#4F4C4B" transform="translate(173,240)"/>
<path d="M0 0 C1.09570312 0.00902344 2.19140625 0.01804688 3.3203125 0.02734375 C4.16335938 0.03894531 5.00640625 0.05054688 5.875 0.0625 C5.875 0.3925 5.875 0.7225 5.875 1.0625 C5.16472656 1.11148438 4.45445312 1.16046875 3.72265625 1.2109375 C2.34400391 1.32308594 2.34400391 1.32308594 0.9375 1.4375 C0.02097656 1.50710937 -0.89554687 1.57671875 -1.83984375 1.6484375 C-2.59394531 1.78507813 -3.34804688 1.92171875 -4.125 2.0625 C-4.455 2.7225 -4.785 3.3825 -5.125 4.0625 C-6.115 4.0625 -7.105 4.0625 -8.125 4.0625 C-8.125 3.0725 -8.125 2.0825 -8.125 1.0625 C-5.36047967 -0.31976016 -3.0788637 -0.03275387 0 0 Z " fill="#130700" transform="translate(260.125,233.9375)"/>
<path d="M0 0 C0.66 0 1.32 0 2 0 C0.68775452 3.93673644 -0.91910327 6.22719294 -4 9 C-4 7.02 -4 5.04 -4 3 C-2.68 3 -1.36 3 0 3 C0 2.01 0 1.02 0 0 Z " fill="#786839" transform="translate(122,156)"/>
<path d="M0 0 C0.33 0.99 0.66 1.98 1 3 C-0.4375 5.1875 -0.4375 5.1875 -2 7 C-2.99 6.67 -3.98 6.34 -5 6 C-4.75 4.125 -4.75 4.125 -4 2 C-1.9375 0.75 -1.9375 0.75 0 0 Z " fill="#726434" transform="translate(210,125)"/>
<path d="M0 0 C0.66 0.33 1.32 0.66 2 1 C1.01 1.33 0.02 1.66 -1 2 C-2.20882096 4.00016466 -2.20882096 4.00016466 -3 6 C-4.32 6 -5.64 6 -7 6 C-6.67 5.01 -6.34 4.02 -6 3 C-5.01 3 -4.02 3 -3 3 C-3 2.34 -3 1.68 -3 1 C-2.01 0.67 -1.02 0.34 0 0 Z " fill="#6D6333" transform="translate(159,117)"/>
<path d="M0 0 C0.66 0.33 1.32 0.66 2 1 C0.68 3.64 -0.64 6.28 -2 9 C-2.99 9 -3.98 9 -5 9 C-5 8.34 -5 7.68 -5 7 C-4.34 7 -3.68 7 -3 7 C-2.87625 6.401875 -2.7525 5.80375 -2.625 5.1875 C-2 3 -2 3 0 0 Z " fill="#978B66" transform="translate(170,202)"/>
<path d="M0 0 C0.66 0.66 1.32 1.32 2 2 C1.625 4.625 1.625 4.625 1 7 C-0.32 6.67 -1.64 6.34 -3 6 C-2.01 4.02 -1.02 2.04 0 0 Z " fill="#B0A070" transform="translate(172,202)"/>
<path d="M0 0 C0.625 1.875 0.625 1.875 1 4 C0.34 4.66 -0.32 5.32 -1 6 C-2.32 6 -3.64 6 -5 6 C-4.67 5.01 -4.34 4.02 -4 3 C-3.34 3 -2.68 3 -2 3 C-2 2.34 -2 1.68 -2 1 C-1.34 0.67 -0.68 0.34 0 0 Z " fill="#665A2F" transform="translate(210,164)"/>
<path d="M0 0 C0.66 0 1.32 0 2 0 C2.33 1.32 2.66 2.64 3 4 C2.195625 4.2475 1.39125 4.495 0.5625 4.75 C-2.171081 5.72238859 -2.171081 5.72238859 -2.8125 8.125 C-2.874375 8.74375 -2.93625 9.3625 -3 10 C-3.33 9.34 -3.66 8.68 -4 8 C-3.67 7.01 -3.34 6.02 -3 5 C-2.34 5 -1.68 5 -1 5 C-0.67 3.35 -0.34 1.7 0 0 Z " fill="#1F1808" transform="translate(127,150)"/>
<path d="M0 0 C0.99 0.495 0.99 0.495 2 1 C1.34 1.66 0.68 2.32 0 3 C0 2.01 0 1.02 0 0 Z M-2 3 C-1.01 3.495 -1.01 3.495 0 4 C-0.99 4.495 -0.99 4.495 -2 5 C-2 4.34 -2 3.68 -2 3 Z M-4 5 C-3.34 5.33 -2.68 5.66 -2 6 C-3.375 7.5 -3.375 7.5 -5 9 C-5.66 9 -6.32 9 -7 9 C-7.33 9.99 -7.66 10.98 -8 12 C-7.6875 9.625 -7.6875 9.625 -7 7 C-6.01 6.34 -5.02 5.68 -4 5 Z " fill="#81703C" transform="translate(152,123)"/>
<path d="M0 0 C0 0.66 0 1.32 0 2 C-0.99 2.495 -0.99 2.495 -2 3 C-2 4.32 -2 5.64 -2 7 C-3.98 7.99 -3.98 7.99 -6 9 C-5.38983051 3.50847458 -5.38983051 3.50847458 -3.5625 1.125 C-2 0 -2 0 0 0 Z " fill="#8C7F5C" transform="translate(128,32)"/>
<path d="M0 0 C1.18851563 0.00902344 2.37703125 0.01804687 3.6015625 0.02734375 C4.51679688 0.03894531 5.43203125 0.05054688 6.375 0.0625 C6.375 0.7225 6.375 1.3825 6.375 2.0625 C1.425 2.3925 -3.525 2.7225 -8.625 3.0625 C-8.625 2.4025 -8.625 1.7425 -8.625 1.0625 C-5.74084117 -0.37957941 -3.20778472 -0.03144887 0 0 Z " fill="#585653" transform="translate(155.625,257.9375)"/>
<path d="M0 0 C1.98 0.99 3.96 1.98 6 3 C5.01 3.495 5.01 3.495 4 4 C4 4.66 4 5.32 4 6 C3.01 6.33 2.02 6.66 1 7 C0 2.25 0 2.25 0 0 Z " fill="#262521" transform="translate(135,246)"/>
<path d="M0 0 C0.33 1.32 0.66 2.64 1 4 C2.32 4.33 3.64 4.66 5 5 C4.34 5.66 3.68 6.32 3 7 C2.67 7.99 2.34 8.98 2 10 C2 9.34 2 8.68 2 8 C1.34 8 0.68 8 0 8 C-0.98120464 4.94736336 -0.98120464 3.05263664 0 0 Z " fill="#474542" transform="translate(133,241)"/>
<path d="M0 0 C0.33 0.99 0.66 1.98 1 3 C-1.97 2.67 -4.94 2.34 -8 2 C-4.77208445 -0.1519437 -3.71599191 -0.20086443 0 0 Z " fill="#38352C" transform="translate(178,238)"/>
<path d="M0 0 C0.66 0.33 1.32 0.66 2 1 C1.67 2.65 1.34 4.3 1 6 C0.34 6 -0.32 6 -1 6 C-1 6.99 -1 7.98 -1 9 C-1.99 9.33 -2.98 9.66 -4 10 C-4 8.68 -4 7.36 -4 6 C-3.01 5.34 -2.02 4.68 -1 4 C-0.27617533 1.94074861 -0.27617533 1.94074861 0 0 Z " fill="#6B5D33" transform="translate(139,123)"/>
<path d="M0 0 C0.99 0 1.98 0 3 0 C3 1.65 3 3.3 3 5 C0.03 4.505 0.03 4.505 -3 4 C-2.67 3.34 -2.34 2.68 -2 2 C-1.34 2 -0.68 2 0 2 C0 1.34 0 0.68 0 0 Z " fill="#66644F" transform="translate(141,33)"/>
<path d="M0 0 C0.8723412 2.99480917 1.10829766 5.63575911 1.0625 8.75 C1.05347656 9.54921875 1.04445312 10.3484375 1.03515625 11.171875 C1.01775391 12.07679687 1.01775391 12.07679687 1 13 C0.01 13 -0.98 13 -2 13 C-1.85915204 11.20793453 -1.71216299 9.41635083 -1.5625 7.625 C-1.48128906 6.62726562 -1.40007812 5.62953125 -1.31640625 4.6015625 C-1 2 -1 2 0 0 Z " fill="#68593D" transform="translate(134,31)"/>
<path d="M0 0 C0.99 0.33 1.98 0.66 3 1 C3 1.66 3 2.32 3 3 C4.65 3 6.3 3 8 3 C8 3.33 8 3.66 8 4 C5.03 4 2.06 4 -1 4 C-0.67 2.68 -0.34 1.36 0 0 Z " fill="#6B5F38" transform="translate(203,170)"/>
<path d="M0 0 C1.32 1.65 2.64 3.3 4 5 C2.68 5.33 1.36 5.66 0 6 C-0.66 4.68 -1.32 3.36 -2 2 C-1.34 2 -0.68 2 0 2 C0 1.34 0 0.68 0 0 Z " fill="#46443E" transform="translate(139,250)"/>
<path d="M0 0 C0.103125 0.639375 0.20625 1.27875 0.3125 1.9375 C0.539375 2.618125 0.76625 3.29875 1 4 C1.99 4.33 2.98 4.66 4 5 C3.01 5.66 2.02 6.32 1 7 C0.01 6.34 -0.98 5.68 -2 5 C-1.34 3.35 -0.68 1.7 0 0 Z " fill="#807C56" transform="translate(137,214)"/>
<path d="M0 0 C0.66 0.33 1.32 0.66 2 1 C0.47793991 3.62901288 -0.84365964 5.84365964 -3 8 C-3.99 7.67 -4.98 7.34 -6 7 C-5.01 6.67 -4.02 6.34 -3 6 C-2.67 5.01 -2.34 4.02 -2 3 C-1.34 3 -0.68 3 0 3 C0 2.01 0 1.02 0 0 Z " fill="#1D1708" transform="translate(185,176)"/>
<path d="M0 0 C0.33 1.32 0.66 2.64 1 4 C2.98 4 4.96 4 7 4 C5.75 5.5625 5.75 5.5625 4 7 C1.8125 6.6875 1.8125 6.6875 0 6 C0 4.02 0 2.04 0 0 Z " fill="#241707" transform="translate(181,146)"/>
<path d="M0 0 C1.134375 0.020625 2.26875 0.04125 3.4375 0.0625 C3.7675 0.7225 4.0975 1.3825 4.4375 2.0625 C1.52267222 2.87217438 -0.02363217 3.28095993 -2.875 2.125 C-3.431875 1.774375 -3.98875 1.42375 -4.5625 1.0625 C-3.5625 0.0625 -3.5625 0.0625 0 0 Z " fill="#291E08" transform="translate(230.5625,137.9375)"/>
<path d="M0 0 C0.66 0.33 1.32 0.66 2 1 C0.02579865 3.52259061 -0.96745642 3.9929808 -4.1875 4.6875 C-5.5796875 4.8421875 -5.5796875 4.8421875 -7 5 C-5.68 4.34 -4.36 3.68 -3 3 C-3 2.34 -3 1.68 -3 1 C-2.01 0.67 -1.02 0.34 0 0 Z " fill="#6E6335" transform="translate(221,117)"/>
<path d="M0 0 C0.66 0.66 1.32 1.32 2 2 C1.625 5.125 1.625 5.125 1 8 C0.34 7.67 -0.32 7.34 -1 7 C-1.625 3.9375 -1.625 3.9375 -2 1 C-1.34 0.67 -0.68 0.34 0 0 Z " fill="#2F2416" transform="translate(178,205)"/>
<path d="M0 0 C1.98 0 3.96 0 6 0 C6 0.99 6 1.98 6 3 C4.35 3.33 2.7 3.66 1 4 C0.67 2.68 0.34 1.36 0 0 Z " fill="#20150E" transform="translate(144,197)"/>
<path d="M0 0 C0 2 0 2 -1.5 3.625 C-1.995 4.07875 -2.49 4.5325 -3 5 C-3.99 4.67 -4.98 4.34 -6 4 C-6 3.01 -6 2.02 -6 1 C-3 0 -3 0 0 0 Z " fill="#736635" transform="translate(185,177)"/>
</svg>
